<svg xmlns="http://www.w3.org/2000/svg" xmlns:xlink="http://www.w3.org/1999/xlink" version="1.1" data-diagram-type="STATE" style="width:568px;height:692px;background:#FFFFFF;" width="568px" height="692px" viewBox="0 0 568 692" zoomAndPan="magnify" preserveAspectRatio="none" contentStyleType="text/css"><?plantuml 1.2026.8?><defs/><g font-family="sans-serif" lengthAdjust="spacing"><g class="title" data-source-line="2"><text x="172.957" y="24.852" fill="#000" font-size="16" textLength="215.719" font-weight="700" font-family="'Helvetica'">Ciclo de vida de un plan</text></g><g class="entity" data-qualified-name="EnCurso" id="ent0001" data-source-line="17"><rect x="7" y="393.285" width="195.195" height="65.398" fill="#FFF7ED" style="stroke:#EA580C;stroke-width:0.5;" rx="5" ry="5"/><line x1="7" y1="418.418" x2="202.195" y2="418.418" style="stroke:#EA580C;stroke-width:0.5;"/><text x="77.677" y="410.352" fill="#000" font-size="13" textLength="53.841" font-family="'Helvetica'">EnCurso</text><text x="12" y="435.485" fill="#000" font-size="13" textLength="175.195" font-family="'Helvetica'">ya no admite participantes</text><text x="12" y="450.618" fill="#000" font-size="13" textLength="111.89" font-family="'Helvetica'">ni lista de espera</text></g><g class="entity" data-qualified-name="Abierto" id="ent0002" data-source-line="18"><rect x="111.5" y="142.185" width="138.187" height="50.266" fill="#FFF7ED" style="stroke:#EA580C;stroke-width:0.5;" rx="5" ry="5"/><line x1="111.5" y1="167.318" x2="249.687" y2="167.318" style="stroke:#EA580C;stroke-width:0.5;"/><text x="157.018" y="159.252" fill="#000" font-size="13" textLength="47.15" font-family="'Helvetica'">Abierto</text><text x="116.5" y="184.385" fill="#000" font-size="13" textLength="118.187" font-family="'Helvetica'">plazasLibres() > 0</text></g><g class="entity" data-qualified-name="Completo" id="ent0003" data-source-line="19"><rect x="194.5" y="269.025" width="138.187" height="50.266" fill="#FFF7ED" style="stroke:#EA580C;stroke-width:0.5;" rx="5" ry="5"/><line x1="194.5" y1="294.158" x2="332.687" y2="294.158" style="stroke:#EA580C;stroke-width:0.5;"/><text x="232.29" y="286.092" fill="#000" font-size="13" textLength="62.607" font-family="'Helvetica'">Completo</text><text x="199.5" y="311.225" fill="#000" font-size="13" textLength="118.187" font-family="'Helvetica'">plazasLibres() = 0</text></g><g class="start_entity" data-qualified-name=".start." id="ent0004" data-source-line="4"><ellipse cx="180.6" cy="55.625" rx="10" ry="10" fill="#EA580C" style="stroke:#222;stroke-width:1;"/></g><g class="entity" data-qualified-name="Cancelado" id="ent0010" data-source-line="10"><rect x="237.49" y="400.985" width="88.212" height="50" fill="#FFF7ED" style="stroke:#EA580C;stroke-width:0.5;" rx="5" ry="5"/><line x1="237.49" y1="426.118" x2="325.702" y2="426.118" style="stroke:#EA580C;stroke-width:0.5;"/><text x="247.49" y="418.052" fill="#000" font-size="13" textLength="68.212" font-family="'Helvetica'">Cancelado</text></g><g class="entity" data-qualified-name="Finalizado" id="ent0013" data-source-line="12"><rect x="109.84" y="532.685" width="85.514" height="50" fill="#FFF7ED" style="stroke:#EA580C;stroke-width:0.5;" rx="5" ry="5"/><line x1="109.84" y1="557.818" x2="195.354" y2="557.818" style="stroke:#EA580C;stroke-width:0.5;"/><text x="119.84" y="549.752" fill="#000" font-size="13" textLength="65.514" font-family="'Helvetica'">Finalizado</text></g><g class="end_entity" data-qualified-name=".end." id="ent0015" data-source-line="14"><ellipse cx="224.6" cy="667.685" rx="11" ry="11" fill="none" style="stroke:#EA580C;stroke-width:1;"/><ellipse cx="224.6" cy="667.685" rx="6" ry="6" fill="#222" style="stroke:#EA580C;stroke-width:1;"/></g><g class="entity" data-qualified-name="GMN18" id="ent0019" data-source-line="21"><path d="M284.69,144.625 L284.69,163.325 L250.16,167.325 L284.69,171.325 L284.69,190.023 A5,5 0 0 0 289.69,195.023 L495.512,195.023 A5,5 0 0 0 500.512,190.023 L500.512,149.625 L490.512,139.625 L289.69,139.625 A5,5 0 0 0 284.69,144.625" style="stroke:#FB923C;stroke-width:0.5;" fill="#FFF7ED"/><path d="M490.512,139.625 L490.512,147.125 A2.5,2.5 0 0 0 493.012,149.625 L500.512,149.625 L490.512,139.625" style="stroke:#FB923C;stroke-width:0.5;" fill="#FFF7ED"/><text x="290.69" y="156.692" fill="#000" font-size="13" textLength="179.893" font-family="'Helvetica'">30 minutos antes del inicio,</text><text x="290.69" y="171.825" fill="#000" font-size="13" textLength="192.829" font-family="'Helvetica'">recordatorio a quien organiza</text><text x="290.69" y="186.958" fill="#000" font-size="13" textLength="194.822" font-family="'Helvetica'">y a los participantes (HU-007)</text></g><!--link *start* to Abierto--><g class="link" data-entity-1="ent0004" data-entity-2="ent0002" id="lnk5" data-source-line="4" data-link-type="dependency"><path d="M180.6,65.975 C180.6,82.655 180.6,113.045 180.6,137.015" style="stroke:#475569;stroke-width:1;" fill="none" id="*start*-to-Abierto"/><polygon points="180.6,142.015,184.6,133.015,180.6,137.015,176.6,133.015,180.6,142.015" fill="#475569" style="stroke:#475569;stroke-width:1;stroke-linejoin:miter;stroke-miterlimit:10;"/><text x="181.6" y="106.835" fill="#334155" font-size="11" textLength="44.36" font-family="'Helvetica'">publicar</text></g><!--link Abierto to Completo--><g class="link" data-entity-1="ent0002" data-entity-2="ent0003" id="lnk6" data-source-line="6" data-link-type="dependency"><path d="M115.28,192.925 C93.28,205.035 77.3,220.925 90.6,239.025 C97.17,247.955 144.151,262.18 189.381,274.31" style="stroke:#475569;stroke-width:1;" fill="none" id="Abierto-to-Completo"/><polygon points="194.21,275.605,186.553,269.41,189.381,274.31,184.481,277.137,194.21,275.605" fill="#475569" style="stroke:#475569;stroke-width:1;stroke-linejoin:miter;stroke-miterlimit:10;"/><text x="91.6" y="236.235" fill="#334155" font-size="11" textLength="133.901" font-family="'Helvetica'">se ocupa la última plaza</text></g><!--link Completo to Abierto--><g class="link" data-entity-1="ent0003" data-entity-2="ent0002" id="lnk7" data-source-line="7" data-link-type="dependency"><path d="M253.2,268.695 C247.08,255.335 238.76,238.775 229.6,225.025 C222.17,213.865 216.11,206.245 207.55,196.655" style="stroke:#475569;stroke-width:1;" fill="none" id="Completo-to-Abierto"/><polygon points="204.22,192.925,207.229,202.303,207.55,196.655,213.197,196.976,204.22,192.925" fill="#475569" style="stroke:#475569;stroke-width:1;stroke-linejoin:miter;stroke-miterlimit:10;"/><text x="238.24" y="236.235" fill="#334155" font-size="11" textLength="142.291" font-family="'Helvetica'">un participante abandona</text></g><!--link Abierto to EnCurso--><g class="link" data-entity-1="ent0002" data-entity-2="ent0001" id="lnk8" data-source-line="8" data-link-type="dependency"><path d="M121.14,192.945 C105.59,201.415 89.79,212.105 77.6,225.025 C62.73,240.785 61.38,247.885 56.6,269.025 C46.74,312.545 64.771,357.163 81.961,388.433" style="stroke:#475569;stroke-width:1;" fill="none" id="Abierto-to-EnCurso"/><polygon points="84.37,392.815,83.54,383.001,81.961,388.433,76.529,386.855,84.37,392.815" fill="#475569" style="stroke:#475569;stroke-width:1;stroke-linejoin:miter;stroke-miterlimit:10;"/><text x="57.6" y="298.365" fill="#334155" font-size="11" textLength="118.019" font-family="'Helvetica'">llega la hora de inicio</text></g><!--link Completo to EnCurso--><g class="link" data-entity-1="ent0003" data-entity-2="ent0001" id="lnk9" data-source-line="9" data-link-type="dependency"><path d="M194.3,317.025 C176.28,325.085 157.94,335.675 143.6,349.285 C131.05,361.195 123.797,373.438 117.477,388.208" style="stroke:#475569;stroke-width:1;" fill="none" id="Completo-to-EnCurso"/><polygon points="115.51,392.805,122.728,386.104,117.477,388.208,115.373,382.957,115.51,392.805" fill="#475569" style="stroke:#475569;stroke-width:1;stroke-linejoin:miter;stroke-miterlimit:10;"/><text x="144.6" y="360.495" fill="#334155" font-size="11" textLength="118.019" font-family="'Helvetica'">llega la hora de inicio</text></g><!--link Abierto to Cancelado--><g class="link" data-entity-1="ent0002" data-entity-2="ent0010" id="lnk11" data-source-line="10" data-link-type="dependency"><path d="M249.83,189.955 C255.82,191.715 261.81,193.425 267.6,195.025 C321.42,209.885 352.24,183.515 389.6,225.025 C431.02,271.045 439.28,310.705 406.6,363.285 C389.09,391.445 359.32,405.7 330.96,414.2" style="stroke:#475569;stroke-width:1;" fill="none" id="Abierto-to-Cancelado"/><polygon points="326.17,415.635,335.94,416.883,330.96,414.2,333.643,409.219,326.17,415.635" fill="#475569" style="stroke:#475569;stroke-width:1;stroke-linejoin:miter;stroke-miterlimit:10;"/><text x="427.69" y="298.365" fill="#334155" font-size="11" textLength="124.942" font-family="'Helvetica'">el organizador cancela</text></g><!--link Completo to Cancelado--><g class="link" data-entity-1="ent0003" data-entity-2="ent0010" id="lnk12" data-source-line="11" data-link-type="dependency"><path d="M266.98,319.575 C270.2,342.785 274.322,372.543 277.542,395.723" style="stroke:#475569;stroke-width:1;" fill="none" id="Completo-to-Cancelado"/><polygon points="278.23,400.675,280.954,391.21,277.542,395.723,273.03,392.311,278.23,400.675" fill="#475569" style="stroke:#475569;stroke-width:1;stroke-linejoin:miter;stroke-miterlimit:10;"/><text x="273.6" y="360.495" fill="#334155" font-size="11" textLength="124.942" font-family="'Helvetica'">el organizador cancela</text></g><!--link EnCurso to Finalizado--><g class="link" data-entity-1="ent0001" data-entity-2="ent0013" id="lnk14" data-source-line="12" data-link-type="dependency"><path d="M112.04,459.105 C115.58,472.735 120.21,488.685 125.6,502.685 C129.44,512.665 132.21,518.82 136.92,527.96" style="stroke:#475569;stroke-width:1;" fill="none" id="EnCurso-to-Finalizado"/><polygon points="139.21,532.405,138.643,522.572,136.92,527.96,131.532,526.237,139.21,532.405" fill="#475569" style="stroke:#475569;stroke-width:1;stroke-linejoin:miter;stroke-miterlimit:10;"/><text x="126.6" y="499.895" fill="#334155" font-size="11" textLength="119.614" font-family="'Helvetica'">3 h después del inicio</text></g><!--link Finalizado to *end*--><g class="link" data-entity-1="ent0013" data-entity-2="ent0015" id="lnk16" data-source-line="14" data-link-type="dependency"><path d="M157.36,583.175 C160.85,596.845 166.58,613.675 175.6,626.685 C186.23,642.025 200.088,652.02 211.058,658.75" style="stroke:#475569;stroke-width:1;" fill="none" id="Finalizado-to-*end*"/><polygon points="215.32,661.365,209.74,653.249,211.058,658.75,205.557,660.068,215.32,661.365" fill="#475569" style="stroke:#475569;stroke-width:1;stroke-linejoin:miter;stroke-miterlimit:10;"/><text x="176.6" y="623.895" fill="#334155" font-size="11" textLength="69.604" font-family="'Helvetica'">valoraciones</text></g><!--link Cancelado to *end*--><g class="link" data-entity-1="ent0010" data-entity-2="ent0015" id="lnk17" data-source-line="15" data-link-type="dependency"><path d="M281.09,451.185 C279.58,489.605 273.65,566.385 250.6,626.685 C245.98,638.755 240.429,647.033 234.379,654.733" style="stroke:#475569;stroke-width:1;" fill="none" id="Cancelado-to-*end*"/><polygon points="231.29,658.665,239.996,654.059,234.379,654.733,233.705,649.117,231.29,658.665" fill="#475569" style="stroke:#475569;stroke-width:1;stroke-linejoin:miter;stroke-miterlimit:10;"/></g><?plantuml-src ZP6_JiD03CRtUmgpjOYMIXsGAb49LI06LYPWS9AZjUJumlsfrBuHhy3Q5yCNcZPX0IbI4lldpv_j2vAIKsLXEhtMnuP8xAQKQZQH8bjOKSaE5DXIXVcT11f6CURbyWqcaoNS5MHzTB209XLC9NfZkbZEhrpTi6s1OC6LgK5WXCCNHwenY-tHdA2XOcw6Fb993KgqW0LAvGG73UvbbNp8EBDTj-8Rvrkp95hgXkf_umFtAALbh39l6PnVez1U_psKFwcX-Z_upa367qYGsxpoSzYeYz2amsVG3-xyc1wLY_Bc5x15LjkQ5nlCkUqHC2P4r8sTfzqXY0EiQj9mVwlXLOI0IGlo4jI0zNWixnqttoayKU5j68rX2RCZqhllB-PM6N6AU5fl8hZtJiu0p6TGawJe0hGUUlDUQThRqlaAe_Eadk4ZaPNJCZM_qo1hxM0E63q-JsQpcx6nKa7k_0q0?></g></svg>