<svg xmlns="http://www.w3.org/2000/svg" xmlns:xlink="http://www.w3.org/1999/xlink" version="1.1" data-diagram-type="DESCRIPTION" style="width:1220px;height:1096px;background:#FFFFFF;" width="1220px" height="1096px" viewBox="0 0 1220 1096" zoomAndPan="magnify" preserveAspectRatio="none" contentStyleType="text/css"><?plantuml 1.2026.8?><defs/><g font-family="sans-serif" lengthAdjust="spacing"><g class="title" data-source-line="2"><text x="459.548" y="24.852" fill="#000" font-size="16" textLength="294.352" font-weight="700" font-family="'Helvetica'">Diagrama de despliegue en AWS</text></g><!--cluster AWS--><g class="cluster" data-qualified-name="AWS" id="ent0003" data-source-line="7"><rect x="7" y="182.395" width="1036" height="900.59" fill="#FFF" style="stroke:#94A3B8;stroke-width:1;" rx="5" ry="5"/><text x="508.118" y="196.462" fill="#000" font-size="13" textLength="33.763" font-weight="700" font-family="'Helvetica'">AWS</text></g><!--cluster VPC--><g class="cluster" data-qualified-name="AWS.VPC" id="ent0009" data-source-line="14"><polygon points="185,333.655,195,323.655,857,323.655,857,1048.985,847,1058.985,185,1058.985,185,333.655" fill="#FFF" style="stroke:#94A3B8;stroke-width:1;stroke-linejoin:miter;stroke-miterlimit:10;"/><line x1="847" y1="333.655" x2="857" y2="323.655" style="stroke:#94A3B8;stroke-width:1;"/><line x1="185" y1="333.655" x2="847" y2="333.655" style="stroke:#94A3B8;stroke-width:1;"/><line x1="847" y1="333.655" x2="847" y2="1058.985" style="stroke:#94A3B8;stroke-width:1;"/><text x="421.223" y="348.722" fill="#000" font-size="13" textLength="191.553" font-weight="700" font-family="'Helvetica'">VPC · eu-south-2 (España)</text></g><!--cluster K8S--><g class="cluster" data-qualified-name="AWS.VPC.K8S" id="ent0011" data-source-line="17"><polygon points="217,500.925,227,490.925,522,490.925,522,1016.985,512,1026.985,217,1026.985,217,500.925" fill="#FFF" style="stroke:#94A3B8;stroke-width:1;stroke-linejoin:miter;stroke-miterlimit:10;"/><line x1="512" y1="500.925" x2="522" y2="490.925" style="stroke:#94A3B8;stroke-width:1;"/><line x1="217" y1="500.925" x2="512" y2="500.925" style="stroke:#94A3B8;stroke-width:1;"/><line x1="512" y1="500.925" x2="512" y2="1026.985" style="stroke:#94A3B8;stroke-width:1;"/><text x="294.67" y="515.992" fill="#000" font-size="13" textLength="141.661" font-weight="700" font-family="'Helvetica'">Clúster Kubernetes</text><text x="302.341" y="531.125" fill="#000" font-size="13" textLength="126.318" font-weight="700" font-family="'Helvetica'">EKS o k3s en EC2</text></g><!--entity R53--><g class="entity" data-qualified-name="AWS.R53" id="ent0004" data-source-line="8"><rect x="112.33" y="216.395" width="147.339" height="60.266" fill="#FFF7ED" style="stroke:#EA580C;stroke-width:0.5;" rx="5" ry="5"/><rect x="239.669" y="221.395" width="15" height="10" fill="#FFF7ED" style="stroke:#EA580C;stroke-width:0.5;"/><rect x="237.669" y="223.395" width="4" height="2" fill="#FFF7ED" style="stroke:#EA580C;stroke-width:0.5;"/><rect x="237.669" y="227.395" width="4" height="2" fill="#FFF7ED" style="stroke:#EA580C;stroke-width:0.5;"/><text x="127.33" y="248.462" fill="#000" font-size="13" textLength="107.339" font-family="'Helvetica'">Route 53 + ACM</text><text x="127.33" y="263.595" fill="#000" font-size="13" textLength="91.679" font-family="'Helvetica'">dominio y TLS</text></g><!--entity CF--><g class="entity" data-qualified-name="AWS.CF" id="ent0005" data-source-line="9"><rect x="22.54" y="362.655" width="146.926" height="60.266" fill="#FFF7ED" style="stroke:#EA580C;stroke-width:0.5;" rx="5" ry="5"/><rect x="149.466" y="367.655" width="15" height="10" fill="#FFF7ED" style="stroke:#EA580C;stroke-width:0.5;"/><rect x="147.466" y="369.655" width="4" height="2" fill="#FFF7ED" style="stroke:#EA580C;stroke-width:0.5;"/><rect x="147.466" y="373.655" width="4" height="2" fill="#FFF7ED" style="stroke:#EA580C;stroke-width:0.5;"/><text x="37.54" y="394.722" fill="#000" font-size="13" textLength="106.926" font-family="'Helvetica'">CloudFront + S3</text><text x="37.54" y="409.855" fill="#000" font-size="13" textLength="79.149" font-family="'Helvetica'">app Angular</text></g><!--entity ECR--><g class="entity" data-qualified-name="AWS.ECR" id="ent0006" data-source-line="10"><rect x="873.19" y="672.055" width="153.617" height="60.266" fill="#FFF7ED" style="stroke:#EA580C;stroke-width:0.5;" rx="5" ry="5"/><rect x="1006.807" y="677.055" width="15" height="10" fill="#FFF7ED" style="stroke:#EA580C;stroke-width:0.5;"/><rect x="1004.807" y="679.055" width="4" height="2" fill="#FFF7ED" style="stroke:#EA580C;stroke-width:0.5;"/><rect x="1004.807" y="683.055" width="4" height="2" fill="#FFF7ED" style="stroke:#EA580C;stroke-width:0.5;"/><text x="888.19" y="704.122" fill="#000" font-size="13" textLength="26.324" font-family="'Helvetica'">ECR</text><text x="888.19" y="719.255" fill="#000" font-size="13" textLength="113.617" font-family="'Helvetica'">imágenes Docker</text></g><!--entity SM--><g class="entity" data-qualified-name="AWS.SM" id="ent0007" data-source-line="11"><rect x="876.14" y="950.285" width="149.726" height="45.133" fill="#FFF7ED" style="stroke:#EA580C;stroke-width:0.5;" rx="5" ry="5"/><rect x="1005.866" y="955.285" width="15" height="10" fill="#FFF7ED" style="stroke:#EA580C;stroke-width:0.5;"/><rect x="1003.866" y="957.285" width="4" height="2" fill="#FFF7ED" style="stroke:#EA580C;stroke-width:0.5;"/><rect x="1003.866" y="961.285" width="4" height="2" fill="#FFF7ED" style="stroke:#EA580C;stroke-width:0.5;"/><text x="891.14" y="982.352" fill="#000" font-size="13" textLength="109.726" font-family="'Helvetica'">Secrets Manager</text></g><!--entity BUD--><g class="entity" data-qualified-name="AWS.BUD" id="ent0008" data-source-line="12"><rect x="629.88" y="216.395" width="144.241" height="60.266" fill="#FFF7ED" style="stroke:#EA580C;stroke-width:0.5;" rx="5" ry="5"/><rect x="754.121" y="221.395" width="15" height="10" fill="#FFF7ED" style="stroke:#EA580C;stroke-width:0.5;"/><rect x="752.121" y="223.395" width="4" height="2" fill="#FFF7ED" style="stroke:#EA580C;stroke-width:0.5;"/><rect x="752.121" y="227.395" width="4" height="2" fill="#FFF7ED" style="stroke:#EA580C;stroke-width:0.5;"/><text x="644.88" y="248.462" fill="#000" font-size="13" textLength="87.661" font-family="'Helvetica'">AWS Budgets</text><text x="644.88" y="263.595" fill="#000" font-size="13" textLength="104.241" font-family="'Helvetica'">alertas de coste</text></g><!--entity ALB--><g class="entity" data-qualified-name="AWS.VPC.ALB" id="ent0010" data-source-line="15"><rect x="209.63" y="362.655" width="132.739" height="60.266" fill="#FFF7ED" style="stroke:#EA580C;stroke-width:0.5;" rx="5" ry="5"/><rect x="322.369" y="367.655" width="15" height="10" fill="#FFF7ED" style="stroke:#EA580C;stroke-width:0.5;"/><rect x="320.369" y="369.655" width="4" height="2" fill="#FFF7ED" style="stroke:#EA580C;stroke-width:0.5;"/><rect x="320.369" y="373.655" width="4" height="2" fill="#FFF7ED" style="stroke:#EA580C;stroke-width:0.5;"/><text x="224.63" y="394.722" fill="#000" font-size="13" textLength="72.636" font-family="'Helvetica'">Application</text><text x="224.63" y="409.855" fill="#000" font-size="13" textLength="92.739" font-family="'Helvetica'">Load Balancer</text></g><!--entity RDS--><g class="entity" data-qualified-name="AWS.VPC.RDS" id="ent0018" data-source-line="26"><path d="M546.02,953.215 C546.02,943.215 628.002,943.215 628.002,943.215 C628.002,943.215 709.985,943.215 709.985,953.215 L709.985,992.481 C709.985,1002.481 628.002,1002.481 628.002,1002.481 C628.002,1002.481 546.02,1002.481 546.02,992.481 L546.02,953.215" style="stroke:#475569;stroke-width:0.5;" fill="#F1F5F9"/><path d="M546.02,953.215 C546.02,963.215 628.002,963.215 628.002,963.215 C628.002,963.215 709.985,963.215 709.985,953.215" style="stroke:#475569;stroke-width:0.5;" fill="none"/><text x="556.02" y="979.282" fill="#000" font-size="13" textLength="83.967" font-family="'Helvetica'">Amazon RDS</text><text x="556.02" y="994.415" fill="#000" font-size="13" textLength="143.965" font-family="'Helvetica'">PostgreSQL + PostGIS</text></g><!--entity EC--><g class="entity" data-qualified-name="AWS.VPC.EC" id="ent0019" data-source-line="27"><path d="M745.15,953.215 C745.15,943.215 793.001,943.215 793.001,943.215 C793.001,943.215 840.852,943.215 840.852,953.215 L840.852,992.481 C840.852,1002.481 793.001,1002.481 793.001,1002.481 C793.001,1002.481 745.15,1002.481 745.15,992.481 L745.15,953.215" style="stroke:#475569;stroke-width:0.5;" fill="#F1F5F9"/><path d="M745.15,953.215 C745.15,963.215 793.001,963.215 793.001,963.215 C793.001,963.215 840.852,963.215 840.852,953.215" style="stroke:#475569;stroke-width:0.5;" fill="none"/><text x="755.15" y="979.282" fill="#000" font-size="13" textLength="75.702" font-family="'Helvetica'">ElastiCache</text><text x="755.15" y="994.415" fill="#000" font-size="13" textLength="35.667" font-family="'Helvetica'">Redis</text></g><!--entity ING--><g class="entity" data-qualified-name="AWS.VPC.K8S.ING" id="ent0012" data-source-line="18"><rect x="243.39" y="552.925" width="87.214" height="45.133" fill="#FFF7ED" style="stroke:#EA580C;stroke-width:0.5;" rx="5" ry="5"/><rect x="310.604" y="557.925" width="15" height="10" fill="#FFF7ED" style="stroke:#EA580C;stroke-width:0.5;"/><rect x="308.604" y="559.925" width="4" height="2" fill="#FFF7ED" style="stroke:#EA580C;stroke-width:0.5;"/><rect x="308.604" y="563.925" width="4" height="2" fill="#FFF7ED" style="stroke:#EA580C;stroke-width:0.5;"/><text x="258.39" y="584.992" fill="#000" font-size="13" textLength="47.214" font-family="'Helvetica'">Ingress</text></g><!--entity GWP--><g class="entity" data-qualified-name="AWS.VPC.K8S.GWP" id="ent0013" data-source-line="19"><rect x="295.2" y="679.625" width="95.605" height="45.133" fill="#FFF7ED" style="stroke:#EA580C;stroke-width:0.5;" rx="5" ry="5"/><rect x="370.805" y="684.625" width="15" height="10" fill="#FFF7ED" style="stroke:#EA580C;stroke-width:0.5;"/><rect x="368.805" y="686.625" width="4" height="2" fill="#FFF7ED" style="stroke:#EA580C;stroke-width:0.5;"/><rect x="368.805" y="690.625" width="4" height="2" fill="#FFF7ED" style="stroke:#EA580C;stroke-width:0.5;"/><text x="310.2" y="711.692" fill="#000" font-size="13" textLength="55.605" font-family="'Helvetica'">gateway</text></g><!--entity SVC--><g class="entity" data-qualified-name="AWS.VPC.K8S.SVC" id="ent0014" data-source-line="20"><rect x="305.65" y="793.325" width="184.701" height="75.398" fill="#FFF7ED" style="stroke:#EA580C;stroke-width:0.5;" rx="5" ry="5"/><rect x="470.351" y="798.325" width="15" height="10" fill="#FFF7ED" style="stroke:#EA580C;stroke-width:0.5;"/><rect x="468.351" y="800.325" width="4" height="2" fill="#FFF7ED" style="stroke:#EA580C;stroke-width:0.5;"/><rect x="468.351" y="804.325" width="4" height="2" fill="#FFF7ED" style="stroke:#EA580C;stroke-width:0.5;"/><text x="320.65" y="825.392" fill="#000" font-size="13" textLength="118.968" font-family="'Helvetica'">users · plans · geo</text><text x="320.65" y="840.525" fill="#000" font-size="13" textLength="144.701" font-family="'Helvetica'">notifications · chat · ai</text><text x="320.65" y="855.658" fill="#000" font-size="13" textLength="132.088" font-family="'Helvetica'">(HPA: autoescalado)</text></g><!--entity KCP--><g class="entity" data-qualified-name="AWS.VPC.K8S.KCP" id="ent0015" data-source-line="21"><rect x="372.79" y="552.925" width="98.424" height="45.133" fill="#FFF7ED" style="stroke:#EA580C;stroke-width:0.5;" rx="5" ry="5"/><rect x="451.214" y="557.925" width="15" height="10" fill="#FFF7ED" style="stroke:#EA580C;stroke-width:0.5;"/><rect x="449.214" y="559.925" width="4" height="2" fill="#FFF7ED" style="stroke:#EA580C;stroke-width:0.5;"/><rect x="449.214" y="563.925" width="4" height="2" fill="#FFF7ED" style="stroke:#EA580C;stroke-width:0.5;"/><text x="387.79" y="584.992" fill="#000" font-size="13" textLength="58.424" font-family="'Helvetica'">Keycloak</text></g><!--entity MQP--><g class="entity" data-qualified-name="AWS.VPC.K8S.MQP" id="ent0016" data-source-line="22"><path d="M246.17,960.285 L319.831,960.285 C324.831,960.285 324.831,972.851 324.831,972.851 C324.831,972.851 324.831,985.418 319.831,985.418 L246.17,985.418 C241.17,985.418 241.17,972.851 241.17,972.851 C241.17,972.851 241.17,960.285 246.17,960.285" style="stroke:#475569;stroke-width:0.5;" fill="#F1F5F9"/><path d="M319.831,960.285 C314.831,960.285 314.831,972.851 314.831,972.851 C314.831,985.418 319.831,985.418 319.831,985.418" style="stroke:#475569;stroke-width:0.5;" fill="none"/><text x="246.17" y="977.352" fill="#000" font-size="13" textLength="63.661" font-family="'Helvetica'">RabbitMQ</text></g><!--entity OBS--><g class="entity" data-qualified-name="AWS.VPC.K8S.OBS" id="ent0017" data-source-line="23"><rect x="359.57" y="942.715" width="130.867" height="60.266" fill="#FFF7ED" style="stroke:#EA580C;stroke-width:0.5;" rx="5" ry="5"/><rect x="470.437" y="947.715" width="15" height="10" fill="#FFF7ED" style="stroke:#EA580C;stroke-width:0.5;"/><rect x="468.437" y="949.715" width="4" height="2" fill="#FFF7ED" style="stroke:#EA580C;stroke-width:0.5;"/><rect x="468.437" y="953.715" width="4" height="2" fill="#FFF7ED" style="stroke:#EA580C;stroke-width:0.5;"/><text x="374.57" y="974.782" fill="#000" font-size="13" textLength="90.867" font-family="'Helvetica'">Grafana · Loki</text><text x="374.57" y="989.915" fill="#000" font-size="13" textLength="78.146" font-family="'Helvetica'">Prometheus</text></g><!--entity USR--><g class="entity" data-qualified-name="USR" id="ent0001" data-source-line="4"><ellipse cx="186.003" cy="53.625" rx="8" ry="8" fill="#FFEDD5" style="stroke:#EA580C;stroke-width:0.5;"/><path d="M186.003,61.625 L186.003,88.625 M173.003,69.625 L199.003,69.625 M186.003,88.625 L173.003,103.625 M186.003,88.625 L199.003,103.625" style="stroke:#EA580C;stroke-width:0.5;" fill="none"/><text x="139.31" y="117.192" fill="#000" font-size="13" textLength="56.177" font-family="'Helvetica'">Usuarios</text><text x="139.31" y="132.325" fill="#000" font-size="13" textLength="93.387" font-family="'Helvetica'">web y Android</text></g><!--entity GHA--><g class="entity" data-qualified-name="GHA" id="ent0002" data-source-line="5"><polygon points="1058.55,380.225,1068.55,370.225,1195.447,370.225,1195.447,405.358,1185.447,415.358,1058.55,415.358,1058.55,380.225" fill="#F8FAFC" style="stroke:#64748B;stroke-width:0.5;stroke-linejoin:miter;stroke-miterlimit:10;"/><line x1="1185.447" y1="380.225" x2="1195.447" y2="370.225" style="stroke:#64748B;stroke-width:0.5;"/><line x1="1058.55" y1="380.225" x2="1185.447" y2="380.225" style="stroke:#64748B;stroke-width:0.5;"/><line x1="1185.447" y1="380.225" x2="1185.447" y2="415.358" style="stroke:#64748B;stroke-width:0.5;"/><text x="1073.55" y="402.292" fill="#000" font-size="13" textLength="96.897" font-family="'Helvetica'">GitHub Actions</text></g><!--link USR to R53--><g class="link" data-entity-1="ent0001" data-entity-2="ent0004" id="lnk20" data-source-line="31" data-link-type="dependency"><path d="M186,135.875 C186,161.685 186,188.435 186,211.115" style="stroke:#475569;stroke-width:1;" fill="none" id="USR-to-R53"/><polygon points="186,216.115,190,207.115,186,211.115,182,207.115,186,216.115" fill="#475569" style="stroke:#475569;stroke-width:1;stroke-linejoin:miter;stroke-miterlimit:10;"/></g><!--link R53 to CF--><g class="link" data-entity-1="ent0004" data-entity-2="ent0005" id="lnk21" data-source-line="32" data-link-type="dependency"><path d="M167.57,277.065 C152.04,301.965 132.576,333.163 117.056,358.043" style="stroke:#475569;stroke-width:1;" fill="none" id="R53-to-CF"/><polygon points="114.41,362.285,122.567,356.766,117.056,358.043,115.78,352.532,114.41,362.285" fill="#475569" style="stroke:#475569;stroke-width:1;stroke-linejoin:miter;stroke-miterlimit:10;"/></g><!--link R53 to ALB--><g class="link" data-entity-1="ent0004" data-entity-2="ent0010" id="lnk22" data-source-line="33" data-link-type="dependency"><path d="M204.43,277.065 C219.96,301.965 239.424,333.163 254.944,358.043" style="stroke:#475569;stroke-width:1;" fill="none" id="R53-to-ALB"/><polygon points="257.59,362.285,256.22,352.532,254.944,358.043,249.433,356.766,257.59,362.285" fill="#475569" style="stroke:#475569;stroke-width:1;stroke-linejoin:miter;stroke-miterlimit:10;"/></g><!--link ALB to ING--><g class="link" data-entity-1="ent0010" data-entity-2="ent0012" id="lnk23" data-source-line="34" data-link-type="dependency"><path d="M277.79,423.225 C280,459.425 283.387,515.064 285.357,547.474" style="stroke:#475569;stroke-width:1;" fill="none" id="ALB-to-ING"/><polygon points="285.66,552.465,289.107,543.239,285.357,547.474,281.121,543.724,285.66,552.465" fill="#475569" style="stroke:#475569;stroke-width:1;stroke-linejoin:miter;stroke-miterlimit:10;"/></g><!--link ING to GWP--><g class="link" data-entity-1="ent0012" data-entity-2="ent0013" id="lnk24" data-source-line="35" data-link-type="dependency"><path d="M296.88,598.495 C307.12,621.285 320.972,652.124 331.172,674.844" style="stroke:#475569;stroke-width:1;" fill="none" id="ING-to-GWP"/><polygon points="333.22,679.405,333.183,669.556,331.172,674.844,325.885,672.833,333.22,679.405" fill="#475569" style="stroke:#475569;stroke-width:1;stroke-linejoin:miter;stroke-miterlimit:10;"/></g><!--link GWP to SVC--><g class="link" data-entity-1="ent0013" data-entity-2="ent0014" id="lnk25" data-source-line="36" data-link-type="dependency"><path d="M352.45,724.995 C360.53,743.615 370.341,766.238 379.901,788.288" style="stroke:#475569;stroke-width:1;" fill="none" id="GWP-to-SVC"/><polygon points="381.89,792.875,381.98,783.027,379.901,788.288,374.64,786.209,381.89,792.875" fill="#475569" style="stroke:#475569;stroke-width:1;stroke-linejoin:miter;stroke-miterlimit:10;"/></g><!--link SVC to RDS--><g class="link" data-entity-1="ent0014" data-entity-2="ent0018" id="lnk26" data-source-line="37" data-link-type="dependency"><path d="M459.03,869.125 C496.96,892.185 540.747,918.808 575.907,940.178" style="stroke:#475569;stroke-width:1;" fill="none" id="SVC-to-RDS"/><polygon points="580.18,942.775,574.567,934.682,575.907,940.178,570.412,941.519,580.18,942.775" fill="#475569" style="stroke:#475569;stroke-width:1;stroke-linejoin:miter;stroke-miterlimit:10;"/></g><!--link SVC to EC--><g class="link" data-entity-1="ent0014" data-entity-2="ent0019" id="lnk27" data-source-line="38" data-link-type="dependency"><path d="M490.63,860.695 C557,881.845 648.2,912.145 727,942.715 C732.84,944.985 734.306,945.526 740.306,948.066" style="stroke:#475569;stroke-width:1;" fill="none" id="SVC-to-EC"/><polygon points="744.91,950.015,738.181,942.823,740.306,948.066,735.063,950.19,744.91,950.015" fill="#475569" style="stroke:#475569;stroke-width:1;stroke-linejoin:miter;stroke-miterlimit:10;"/></g><!--link SVC to MQP--><g class="link" data-entity-1="ent0014" data-entity-2="ent0016" id="lnk28" data-source-line="39" data-link-type="dependency"><path d="M367.48,869.125 C342.6,899.385 312.166,936.393 295.856,956.223" style="stroke:#475569;stroke-width:1;" fill="none" id="SVC-to-MQP"/><polygon points="292.68,960.085,301.486,955.675,295.856,956.223,295.308,950.593,292.68,960.085" fill="#475569" style="stroke:#475569;stroke-width:1;stroke-linejoin:miter;stroke-miterlimit:10;"/></g><!--link SVC to SM--><g class="link" data-entity-1="ent0014" data-entity-2="ent0007" id="lnk29" data-source-line="40" data-link-type="dependency"><path d="M490.51,839.895 C572.93,848.665 696.06,866.125 799,898.715 C839.62,911.585 878.787,931.039 908.807,947.519" style="stroke:#475569;stroke-width:1;stroke-dasharray:7,7;" fill="none" id="SVC-to-SM"/><polygon points="913.19,949.925,907.226,942.088,908.807,947.519,903.376,949.1,913.19,949.925" fill="#475569" style="stroke:#475569;stroke-width:1;stroke-linejoin:miter;stroke-miterlimit:10;"/><text x="834.63" y="909.925" fill="#334155" font-size="11" textLength="46.61" font-family="'Helvetica'">secretos</text></g><!--link SVC to OBS--><g class="link" data-entity-1="ent0014" data-entity-2="ent0017" id="lnk30" data-source-line="41" data-link-type="dependency"><path d="M396.69,868.915 C396.89,882.775 397.97,898.605 401,912.715 C403.14,922.685 404.922,928.508 408.782,937.798" style="stroke:#475569;stroke-width:1;stroke-dasharray:7,7;" fill="none" id="SVC-to-OBS"/><polygon points="410.7,942.415,410.941,932.569,408.782,937.798,403.553,935.639,410.7,942.415" fill="#475569" style="stroke:#475569;stroke-width:1;stroke-linejoin:miter;stroke-miterlimit:10;"/><text x="402" y="909.925" fill="#334155" font-size="11" textLength="83.896" font-family="'Helvetica'">logs y métricas</text></g><!--link GHA to ECR--><g class="link" data-entity-1="ent0002" data-entity-2="ent0006" id="lnk31" data-source-line="42" data-link-type="dependency"><path d="M1114.55,415.405 C1083.47,469.385 1004.905,605.842 969.475,667.362" style="stroke:#475569;stroke-width:1;" fill="none" id="GHA-to-ECR"/><polygon points="966.98,671.695,974.938,665.892,969.475,667.362,968.005,661.9,966.98,671.695" fill="#475569" style="stroke:#475569;stroke-width:1;stroke-linejoin:miter;stroke-miterlimit:10;"/><text x="1079.47" y="579.695" fill="#334155" font-size="11" textLength="101.132" font-family="'Helvetica'">push de imágenes</text></g><!--link GHA to K8S--><g class="link" data-entity-1="ent0002" data-entity-2="ent0011" id="lnk32" data-source-line="43" data-link-type="dependency"><path d="M1058.17,414.075 C978.725,437.495 844.18,477.157 728.756,511.182 C671.044,528.195 618.113,543.798 579.239,555.257 C559.802,560.986 543.88,565.68 532.632,568.995 C529.82,569.824 527.3,570.566 525.09,571.218 C523.986,571.543 527.754,570.433 526.807,570.712" style="stroke:#475569;stroke-width:1;" fill="none" id="GHA-to-K8S"/><polygon points="522.011,572.125,531.775,573.418,526.807,570.712,529.513,565.744,522.011,572.125" fill="#475569" style="stroke:#475569;stroke-width:1;stroke-linejoin:miter;stroke-miterlimit:10;"/><text x="912.22" y="464.135" fill="#334155" font-size="11" textLength="60.065" font-family="'Helvetica'">despliegue</text></g><!--link K8S to ECR--><g class="link" data-entity-1="ent0011" data-entity-2="ent0006" id="lnk33" data-source-line="44" data-link-type="dependency"><path d="M522.201,578.837 C522.571,578.943 522.952,579.052 523.344,579.164 C524.129,579.389 524.96,579.626 525.837,579.877 C532.846,581.882 542.729,584.708 554.838,588.171 C579.056,595.098 612.177,604.571 649.014,615.106 C722.688,636.177 806.418,660.125 868.323,677.83" style="stroke:#475569;stroke-width:1;stroke-dasharray:7,7;" fill="none" id="K8S-to-ECR"/><polygon points="873.13,679.205,865.577,672.884,868.323,677.83,863.377,680.576,873.13,679.205" fill="#475569" style="stroke:#475569;stroke-width:1;stroke-linejoin:miter;stroke-miterlimit:10;"/><text x="733" y="639.265" fill="#334155" font-size="11" textLength="20.066" font-family="'Helvetica'">pull</text></g><?plantuml-src RLHDRzD04BtxLmmv5LNfeL4br0DIugHfbGHIcxGNNoRsr5bblMlsGrL1_1YE73aXSIH_ZDbrKWZbiF9avhrzyxLv9LGfVKL0rWcfpuHlPEA4amHZWRN11e6Z5TbM2gez0nKCx_CamT9f0xsLzMY4jeLwf3KymL1LHekg1sXXbMU9qaplJOMxzciObavePMDmUZrC4aEbGrMpMeylZNx-mkS4eDHDgnKf1xrCUqTmCO1J6AQBGbMw4KfeLlimxqZPnU2OaahjgokZsJw5V50eR5lEhVOIJMIaLyU4IPeLIZIxhpKfiZ3MvPOw94UEeJcLXfo51Igizw1ySOm9LOnyLJEEjIKPno3kHAcjeyWOhSO9Sxh-t2rJ-FK3oFSjrxhfdyF9nBQu-uwl8pZ4GrEEDLgUIOcXfOMQQwnWX19LkKzfE1ybaT99f7BtaxKDpFoQZ297dDbabeE6xS26iKxIyqYSlSdtOaToDwesPBlXtRoRlWJKwEWHdxhftYzV0hmbOqETBQSPZPfqePHsuc5VIFIM6tJXYw9G9zVBuIMWTvfioULLkkj8VfU-59ZHKoarRhioqaCA7ptnulOoNA-5Mzp6wEBsFmbE3JxmK8FsN6zPVMbqGsv3lYlx_IYFf2zTOojqk4ORbhV1Jrf1DiwPmoFcJkMtSrwzy6Dwir_ISVuFRIAHdrsAvOOAbL4bx7xZag31Alo2eDz_6_URJxHvSmzc636VQ8UHy8bsw3wVQ8T6yUckuGmEzkIFE_GYs6Td35_09TYuuTe-UxbmTajTMtvqpUwRCpmlc_0Rtj-LSRZrTXDs_FaLFSV3Hbt-zIUI14Uuzq2KyZS0?></g></svg>