<svg xmlns="http://www.w3.org/2000/svg" xmlns:xlink="http://www.w3.org/1999/xlink" version="1.1" data-diagram-type="SEQUENCE" style="width:788px;height:798px;background:#FFFFFF;" width="788px" height="798px" viewBox="0 0 788 798" zoomAndPan="magnify" preserveAspectRatio="none" contentStyleType="text/css"><?plantuml 1.2026.8?><defs/><g font-family="sans-serif" lengthAdjust="spacing"><g class="title" data-source-line="2"><text x="70.893" y="29.852" fill="#000" font-size="16" textLength="645.203" font-weight="700" font-family="'Helvetica'">Límite de peticiones en el gateway (token bucket compartido en Redis)</text></g><rect x="48.895" y="337.523" width="720.094" height="335.578" fill="#FFF" style="stroke:#FFF;stroke-width:1;" rx="5" ry="5"/><rect x="48.895" y="337.523" width="720.094" height="335.578" fill="none" style="stroke:#94A3B8;stroke-width:1.5;" rx="5" ry="5"/><g><title>Usuario</title><rect x="61.395" y="139.891" width="8" height="557.211" fill="#000" fill-opacity="0"/><line x1="64.895" y1="139.891" x2="64.895" y2="697.102" style="stroke:#94A3B8;stroke-width:0.5;stroke-dasharray:5,5;"/></g><g><title>gateway</title><rect x="262.056" y="139.891" width="8" height="557.211" fill="#000" fill-opacity="0"/><line x1="265.556" y1="139.891" x2="265.556" y2="697.102" style="stroke:#94A3B8;stroke-width:0.5;stroke-dasharray:5,5;"/></g><g><title>RateLimitFilter</title><rect x="399.123" y="139.891" width="8" height="557.211" fill="#000" fill-opacity="0"/><line x1="402.623" y1="139.891" x2="402.623" y2="697.102" style="stroke:#94A3B8;stroke-width:0.5;stroke-dasharray:5,5;"/></g><g><title>Redis</title><rect x="632.735" y="139.891" width="8" height="557.211" fill="#000" fill-opacity="0"/><line x1="636.235" y1="139.891" x2="636.235" y2="697.102" style="stroke:#94A3B8;stroke-width:0.5;stroke-dasharray:5,5;"/></g><g><title>plans</title><rect x="749.489" y="139.891" width="8" height="557.211" fill="#000" fill-opacity="0"/><line x1="752.989" y1="139.891" x2="752.989" y2="697.102" style="stroke:#94A3B8;stroke-width:0.5;stroke-dasharray:5,5;"/></g><text x="37.193" y="121.692" fill="#000" font-size="13" textLength="49.404" font-family="'Helvetica'">Usuario</text><text x="10" y="136.825" fill="#000" font-size="13" textLength="103.791" font-family="'Helvetica'">(web o Android)</text><ellipse cx="64.895" cy="58.125" rx="8" ry="8" fill="#FFEDD5" style="stroke:#EA580C;stroke-width:0.5;"/><path d="M64.895,66.125 L64.895,93.125 M51.895,74.125 L77.895,74.125 M64.895,93.125 L51.895,108.125 M64.895,93.125 L77.895,108.125" style="stroke:#EA580C;stroke-width:0.5;" fill="none"/><rect x="208.822" y="94.625" width="113.468" height="44.266" fill="#FFF7ED" style="stroke:#EA580C;stroke-width:0.5;" rx="5" ry="5"/><text x="237.753" y="113.692" fill="#000" font-size="13" textLength="55.605" font-family="'Helvetica'">gateway</text><text x="215.822" y="128.825" fill="#000" font-size="13" textLength="99.468" font-family="'Helvetica'">Spring Security</text><rect x="347.892" y="109.758" width="109.462" height="29.133" fill="#FFF7ED" style="stroke:#EA580C;stroke-width:0.5;" rx="5" ry="5"/><text x="354.892" y="128.825" fill="#000" font-size="13" textLength="95.462" font-family="'Helvetica'">RateLimitFilter</text><text x="615.401" y="121.692" fill="#000" font-size="13" textLength="35.667" font-family="'Helvetica'">Redis</text><text x="553.902" y="136.825" fill="#000" font-size="13" textLength="158.666" font-family="'Helvetica'">cubo por regla y usuario</text><path d="M618.235,73.625 C618.235,63.625 636.235,63.625 636.235,63.625 C636.235,63.625 654.235,63.625 654.235,73.625 L654.235,99.625 C654.235,109.625 636.235,109.625 636.235,109.625 C636.235,109.625 618.235,109.625 618.235,99.625 L618.235,73.625" style="stroke:#475569;stroke-width:0.5;" fill="#F1F5F9"/><path d="M618.235,73.625 C618.235,83.625 636.235,83.625 636.235,83.625 C636.235,83.625 654.235,83.625 654.235,73.625" style="stroke:#475569;stroke-width:0.5;" fill="none"/><rect x="728.568" y="109.758" width="48.842" height="29.133" fill="#FFF7ED" style="stroke:#EA580C;stroke-width:0.5;" rx="5" ry="5"/><text x="735.568" y="128.825" fill="#000" font-size="13" textLength="34.842" font-family="'Helvetica'">plans</text><text x="37.193" y="709.168" fill="#000" font-size="13" textLength="49.404" font-family="'Helvetica'">Usuario</text><text x="10" y="724.301" fill="#000" font-size="13" textLength="103.791" font-family="'Helvetica'">(web o Android)</text><ellipse cx="64.895" cy="735.867" rx="8" ry="8" fill="#FFEDD5" style="stroke:#EA580C;stroke-width:0.5;"/><path d="M64.895,743.867 L64.895,770.867 M51.895,751.867 L77.895,751.867 M64.895,770.867 L51.895,785.867 M64.895,770.867 L77.895,785.867" style="stroke:#EA580C;stroke-width:0.5;" fill="none"/><rect x="208.822" y="697.102" width="113.468" height="44.266" fill="#FFF7ED" style="stroke:#EA580C;stroke-width:0.5;" rx="5" ry="5"/><text x="237.753" y="716.168" fill="#000" font-size="13" textLength="55.605" font-family="'Helvetica'">gateway</text><text x="215.822" y="731.301" fill="#000" font-size="13" textLength="99.468" font-family="'Helvetica'">Spring Security</text><rect x="347.892" y="697.102" width="109.462" height="29.133" fill="#FFF7ED" style="stroke:#EA580C;stroke-width:0.5;" rx="5" ry="5"/><text x="354.892" y="716.168" fill="#000" font-size="13" textLength="95.462" font-family="'Helvetica'">RateLimitFilter</text><text x="615.401" y="709.168" fill="#000" font-size="13" textLength="35.667" font-family="'Helvetica'">Redis</text><text x="553.902" y="724.301" fill="#000" font-size="13" textLength="158.666" font-family="'Helvetica'">cubo por regla y usuario</text><path d="M618.235,737.367 C618.235,727.367 636.235,727.367 636.235,727.367 C636.235,727.367 654.235,727.367 654.235,737.367 L654.235,763.367 C654.235,773.367 636.235,773.367 636.235,773.367 C636.235,773.367 618.235,773.367 618.235,763.367 L618.235,737.367" style="stroke:#475569;stroke-width:0.5;" fill="#F1F5F9"/><path d="M618.235,737.367 C618.235,747.367 636.235,747.367 636.235,747.367 C636.235,747.367 654.235,747.367 654.235,737.367" style="stroke:#475569;stroke-width:0.5;" fill="none"/><rect x="728.568" y="697.102" width="48.842" height="29.133" fill="#FFF7ED" style="stroke:#EA580C;stroke-width:0.5;" rx="5" ry="5"/><text x="735.568" y="716.168" fill="#000" font-size="13" textLength="34.842" font-family="'Helvetica'">plans</text><polygon points="253.556,162.695,263.556,166.695,253.556,170.695,257.556,166.695" fill="#475569" style="stroke:#475569;stroke-width:1;stroke-linejoin:miter;stroke-miterlimit:10;"/><line x1="64.895" y1="166.695" x2="259.556" y2="166.695" style="stroke:#475569;stroke-width:1;"/><text x="71.895" y="162.101" fill="#334155" font-size="11" textLength="176.661" font-family="'Helvetica'">POST /api/v1/plans (Bearer JWT)</text><line x1="265.556" y1="193.5" x2="307.556" y2="193.5" style="stroke:#475569;stroke-width:1;"/><line x1="307.556" y1="193.5" x2="307.556" y2="206.5" style="stroke:#475569;stroke-width:1;"/><line x1="266.556" y1="206.5" x2="307.556" y2="206.5" style="stroke:#475569;stroke-width:1;"/><polygon points="276.556,202.5,266.556,206.5,276.556,210.5,272.556,206.5" fill="#475569" style="stroke:#475569;stroke-width:1;stroke-linejoin:miter;stroke-miterlimit:10;"/><text x="272.556" y="188.906" fill="#334155" font-size="11" textLength="70.743" font-family="'Helvetica'">valida el JWT</text><polygon points="390.623,229.305,400.623,233.305,390.623,237.305,394.623,233.305" fill="#475569" style="stroke:#475569;stroke-width:1;stroke-linejoin:miter;stroke-miterlimit:10;"/><line x1="265.556" y1="233.305" x2="396.623" y2="233.305" style="stroke:#475569;stroke-width:1;"/><text x="272.556" y="228.71" fill="#334155" font-size="11" textLength="113.067" font-family="'Helvetica'">petición autenticada</text><line x1="402.623" y1="272.914" x2="444.623" y2="272.914" style="stroke:#475569;stroke-width:1;"/><line x1="444.623" y1="272.914" x2="444.623" y2="285.914" style="stroke:#475569;stroke-width:1;"/><line x1="403.623" y1="285.914" x2="444.623" y2="285.914" style="stroke:#475569;stroke-width:1;"/><polygon points="413.623,281.914,403.623,285.914,413.623,289.914,409.623,285.914" fill="#475569" style="stroke:#475569;stroke-width:1;stroke-linejoin:miter;stroke-miterlimit:10;"/><text x="409.623" y="255.515" fill="#334155" font-size="11" textLength="148.248" font-family="'Helvetica'">primera regla que coincide</text><text x="409.623" y="268.32" fill="#334155" font-size="11" textLength="151.057" font-family="'Helvetica'">«publish-plans»: 5 por hora</text><polygon points="624.235,321.523,634.235,325.523,624.235,329.523,628.235,325.523" fill="#475569" style="stroke:#475569;stroke-width:1;stroke-linejoin:miter;stroke-miterlimit:10;"/><line x1="402.623" y1="325.523" x2="630.235" y2="325.523" style="stroke:#475569;stroke-width:1;"/><text x="409.623" y="308.125" fill="#334155" font-size="11" textLength="200.068" font-family="'Helvetica'">tryConsumeAndReturnRemaining(1)</text><text x="409.623" y="320.929" fill="#334155" font-size="11" textLength="209.612" font-family="'Helvetica'">clave publish-plans:user:&lt;sub> (CAS)</text><path d="M53.895,337.523 L113.338,337.523 L113.338,344.656 L103.338,354.656 L48.895,354.656 L48.895,342.523 A5,5 0 0 1 53.895,337.523" style="stroke:#000;stroke-width:1.5;" fill="#F1F5F9"/><rect x="48.895" y="337.523" width="720.094" height="335.578" fill="none" style="stroke:#94A3B8;stroke-width:1.5;" rx="5" ry="5"/><text x="63.895" y="350.59" fill="#000" font-size="13" textLength="19.443" font-weight="700" font-family="'Helvetica'">alt</text><text x="128.338" y="351.59" fill="#000" font-size="13" textLength="114.702" font-weight="700" font-family="'Helvetica'">[quedan fichas]</text><polygon points="413.623,379.594,403.623,383.594,413.623,387.594,409.623,383.594" fill="#475569" style="stroke:#475569;stroke-width:1;stroke-linejoin:miter;stroke-miterlimit:10;"/><line x1="407.623" y1="383.594" x2="635.235" y2="383.594" style="stroke:#475569;stroke-width:1;stroke-dasharray:2,2;"/><text x="419.623" y="379" fill="#334155" font-size="11" textLength="120.082" font-family="'Helvetica'">consumida, quedan N</text><polygon points="740.989,406.398,750.989,410.398,740.989,414.398,744.989,410.398" fill="#475569" style="stroke:#475569;stroke-width:1;stroke-linejoin:miter;stroke-miterlimit:10;"/><line x1="402.623" y1="410.398" x2="746.989" y2="410.398" style="stroke:#475569;stroke-width:1;"/><text x="409.623" y="405.804" fill="#334155" font-size="11" textLength="102.051" font-family="'Helvetica'">reenvía la petición</text><polygon points="75.895,446.008,65.895,450.008,75.895,454.008,71.895,450.008" fill="#475569" style="stroke:#475569;stroke-width:1;stroke-linejoin:miter;stroke-miterlimit:10;"/><line x1="69.895" y1="450.008" x2="751.989" y2="450.008" style="stroke:#475569;stroke-width:1;stroke-dasharray:2,2;"/><text x="81.895" y="432.609" fill="#334155" font-size="11" textLength="68.267" font-family="'Helvetica'">201 Created</text><text x="81.895" y="445.414" fill="#334155" font-size="11" textLength="142.543" font-family="'Helvetica'">X-RateLimit-Remaining: N</text><line x1="48.895" y1="459.008" x2="768.989" y2="459.008" style="stroke:#94A3B8;stroke-width:1;stroke-dasharray:2,2;"/><text x="53.895" y="473.075" fill="#000" font-size="13" textLength="89.946" font-weight="700" font-family="'Helvetica'">[cubo vacío]</text><polygon points="413.623,493.945,403.623,497.945,413.623,501.945,409.623,497.945" fill="#475569" style="stroke:#475569;stroke-width:1;stroke-linejoin:miter;stroke-miterlimit:10;"/><line x1="407.623" y1="497.945" x2="635.235" y2="497.945" style="stroke:#475569;stroke-width:1;stroke-dasharray:2,2;"/><text x="419.623" y="493.351" fill="#334155" font-size="11" textLength="143.285" font-family="'Helvetica'">rechazada, recarga en T s</text><line x1="402.623" y1="524.75" x2="444.623" y2="524.75" style="stroke:#475569;stroke-width:1;"/><line x1="444.623" y1="524.75" x2="444.623" y2="537.75" style="stroke:#475569;stroke-width:1;"/><line x1="403.623" y1="537.75" x2="444.623" y2="537.75" style="stroke:#475569;stroke-width:1;"/><polygon points="413.623,533.75,403.623,537.75,413.623,541.75,409.623,537.75" fill="#475569" style="stroke:#475569;stroke-width:1;stroke-linejoin:miter;stroke-miterlimit:10;"/><text x="409.623" y="520.156" fill="#334155" font-size="11" textLength="176.236" font-family="'Helvetica'">métrica ratelimit.rejected{rule}</text><polygon points="75.895,573.359,65.895,577.359,75.895,581.359,71.895,577.359" fill="#475569" style="stroke:#475569;stroke-width:1;stroke-linejoin:miter;stroke-miterlimit:10;"/><line x1="69.895" y1="577.359" x2="401.623" y2="577.359" style="stroke:#475569;stroke-width:1;stroke-dasharray:2,2;"/><text x="81.895" y="559.96" fill="#334155" font-size="11" textLength="111.531" font-family="'Helvetica'">429 Problem Details</text><text x="81.895" y="572.765" fill="#334155" font-size="11" textLength="175.452" font-family="'Helvetica'">code rate.limited, Retry-After: T</text><line x1="48.895" y1="586.359" x2="768.989" y2="586.359" style="stroke:#94A3B8;stroke-width:1;stroke-dasharray:2,2;"/><text x="53.895" y="600.426" fill="#000" font-size="13" textLength="148.027" font-weight="700" font-family="'Helvetica'">[Redis no responde]</text><line x1="402.623" y1="625.297" x2="444.623" y2="625.297" style="stroke:#475569;stroke-width:1;"/><line x1="444.623" y1="625.297" x2="444.623" y2="638.297" style="stroke:#475569;stroke-width:1;"/><line x1="403.623" y1="638.297" x2="444.623" y2="638.297" style="stroke:#475569;stroke-width:1;"/><polygon points="413.623,634.297,403.623,638.297,413.623,642.297,409.623,638.297" fill="#475569" style="stroke:#475569;stroke-width:1;stroke-linejoin:miter;stroke-miterlimit:10;"/><text x="409.623" y="620.703" fill="#334155" font-size="11" textLength="159.291" font-family="'Helvetica'">métrica ratelimit.unavailable</text><polygon points="740.989,661.102,750.989,665.102,740.989,669.102,744.989,665.102" fill="#475569" style="stroke:#475569;stroke-width:1;stroke-linejoin:miter;stroke-miterlimit:10;"/><line x1="402.623" y1="665.102" x2="746.989" y2="665.102" style="stroke:#475569;stroke-width:1;"/><text x="409.623" y="660.507" fill="#334155" font-size="11" textLength="136.727" font-family="'Helvetica'">reenvía (falla en abierto)</text><?plantuml-src XPFFRXD13CRl-nGcfqHgMbh1WGXLAW4EA88eVmI7NBmxRcewExDuPb85n0CXr1D7RisBuPqaAoeXSKlYRpx__DbvmgwooH1GY6pzAQVQ5f6Z9PZixckE15fiA7B5tb40Sa0MrXZf3hVGZ_vMVobJTKiHAbytA96DRsKpCXm6HO5Lz0AzPKWex5UkVqSbUBXoHZoRGGymmBB83ojkq4Ne7UnNRju8kpNCgKh2SPkrypVZn-gPgYUih6_PHf8icaqAWn5B3AI2bcJbgbHwQ9H5Q6qHjf3sIFi7ZpqRYoxamhGebZ2yRDl22AOVvWiumuRFDkTdMGJzLuH20ky-BWP5g-h46xHiiCrBQyVIRAALVQ2xNmumHNBw1GqMMke4mZK97b2_9D9mTLLiQEKUVZQfj1nkXXdWuVS8dkUvRhnq9keHPJlsBgIQDEiPnIHkHZMoqqZxvmCDnE96b_ktsIW5aj7BaCfBw8-lveC2RMpx6tHmpTKDXWBKVNW4hN877VFag7hV2ZB4LEj2v3QxUmGTevjQ5TDiiLJ5nTDp60lf4itAVHfssnnsi2Fr9AkRp1lSOBMxzuyfX9JiAxOK-X5bZUq5BY1qB5bMxtv4qQn1j8bjcvmAVQPAMt-JPEdxGNuWUtRn0gRYIqirlAQ8RDihylg7QD-VPWCo9thf6lNmwbgFRmIBFMg-EN1UUKBZdQ7_aYI76ss1skxV2VQlqTey69PC4lsW86V-0000?></g></svg>