<svg xmlns="http://www.w3.org/2000/svg" viewBox="0 0 512 512" width="512" height="512" role="img" aria-label="Accerberus">
  <title>Accerberus</title>
  <defs>
    <linearGradient id="bg" x1="0" y1="0" x2="1" y2="1"><stop offset="0" stop-color="#E46956"/><stop offset=".55" stop-color="#E0553F"/><stop offset="1" stop-color="#8C1424"/></linearGradient>
    <radialGradient id="aura" cx=".5" cy="0.55" r=".55"><stop offset="0" stop-color="#F1B2A9" stop-opacity=".95"/><stop offset=".55" stop-color="#F1B2A9" stop-opacity=".25"/><stop offset="1" stop-color="#F1B2A9" stop-opacity="0"/></radialGradient>
    <radialGradient id="vig" cx=".5" cy=".45" r=".75"><stop offset=".55" stop-color="#3F0910" stop-opacity="0"/><stop offset="1" stop-color="#3F0910" stop-opacity=".6"/></radialGradient>
    <linearGradient id="fw" gradientUnits="userSpaceOnUse" x1="150" y1="60" x2="360" y2="470"><stop offset="0" stop-color="#FFFFFF"/><stop offset=".5" stop-color="#FBE7E4"/><stop offset="1" stop-color="#F3BBB2"/></linearGradient>
    <linearGradient id="shH" gradientUnits="userSpaceOnUse" x1="256" y1="0" x2="440" y2="0"><stop offset="0" stop-color="#3F0910" stop-opacity="0"/><stop offset=".6" stop-color="#3F0910" stop-opacity=".05"/><stop offset="1" stop-color="#3F0910" stop-opacity=".38"/></linearGradient>
    <linearGradient id="shV" gradientUnits="userSpaceOnUse" x1="0" y1="80" x2="0" y2="450"><stop offset="0" stop-color="#3F0910" stop-opacity="0"/><stop offset=".6" stop-color="#3F0910" stop-opacity="0"/><stop offset="1" stop-color="#3F0910" stop-opacity=".3"/></linearGradient>
    <linearGradient id="gold" x1="0" y1="0" x2="1" y2="1"><stop offset="0" stop-color="#FFF1B0"/><stop offset=".5" stop-color="#FFC83D"/><stop offset="1" stop-color="#C98A0B"/></linearGradient>
    <radialGradient id="eyeG" cx=".4" cy=".35" r=".8"><stop offset="0" stop-color="#FFFBD6"/><stop offset=".35" stop-color="#FFD84A"/><stop offset=".8" stop-color="#FF9A1F"/><stop offset="1" stop-color="#D9560B"/></radialGradient>
    <linearGradient id="fl" x1="0" y1="1" x2="0" y2="0"><stop offset="0" stop-color="#FFD84A"/><stop offset=".5" stop-color="#FF7A1F"/><stop offset="1" stop-color="#E02F1B" stop-opacity="0"/></linearGradient>
    <linearGradient id="gloss" x1="0" y1="0" x2="0" y2="1"><stop offset="0" stop-color="#fff" stop-opacity=".34"/><stop offset="1" stop-color="#fff" stop-opacity="0"/></linearGradient>
    <pattern id="tex" width="12" height="16" patternUnits="userSpaceOnUse" patternTransform="rotate(18)"><path d="M3 0 V9 M9 7 V16" stroke="#000" stroke-opacity=".12" stroke-width="2" stroke-linecap="round"/></pattern>
    <filter id="glow" x="-80%" y="-80%" width="260%" height="260%"><feGaussianBlur stdDeviation="6"/></filter>
    <filter id="blur4" x="-50%" y="-50%" width="200%" height="200%"><feGaussianBlur stdDeviation="4"/></filter>
    <filter id="blur12" x="-50%" y="-50%" width="200%" height="200%"><feGaussianBlur stdDeviation="12"/></filter>
    <filter id="sh" x="-20%" y="-20%" width="140%" height="150%"><feDropShadow dx="0" dy="14" stdDeviation="11" flood-color="#3F0910" flood-opacity=".6"/></filter>
    <filter id="bv" x="-5%" y="-5%" width="110%" height="110%" color-interpolation-filters="sRGB">
      <feGaussianBlur in="SourceAlpha" stdDeviation="3.2" result="b"/>
      <feDiffuseLighting in="b" surfaceScale="6" diffuseConstant="1.5" lighting-color="#fff" result="dl"><fePointLight x="110" y="20" z="300"/></feDiffuseLighting>
      <feComposite in="dl" in2="SourceAlpha" operator="in" result="dl2"/>
      <feBlend in="SourceGraphic" in2="dl2" mode="multiply" result="lit"/>
      <feSpecularLighting in="b" surfaceScale="6" specularConstant=".75" specularExponent="26" lighting-color="#fff" result="sp"><fePointLight x="110" y="20" z="300"/></feSpecularLighting>
      <feComposite in="sp" in2="SourceAlpha" operator="in" result="sp2"/>
      <feComposite in="sp2" in2="lit" operator="arithmetic" k1="0" k2="1" k3="1" k4="0"/>
    </filter>
    <clipPath id="c"><rect width="512" height="512" rx="112"/></clipPath>
  </defs>
  <g clip-path="url(#c)">
    <rect width="512" height="512" fill="url(#bg)"/>
    <g fill="url(#fl)" opacity=".85"><path d="M-20 512 C-50 464 -10 440 -12 392 C20 446 40 476 20 512Z"/><path d="M42 512 C12 443 52 408 50 339 C82 417 102 460 82 512Z"/><path d="M104 512 C74 450 114 418 112 356 C144 426 164 465 144 512Z"/><path d="M166 512 C136 456 176 429 174 373 C206 436 226 470 206 512Z"/><path d="M228 512 C198 463 238 439 236 390 C268 445 288 475 268 512Z"/><path d="M290 512 C260 442 300 407 298 337 C330 416 350 460 330 512Z"/><path d="M352 512 C322 449 362 417 360 354 C392 425 412 465 392 512Z"/><path d="M414 512 C384 456 424 427 422 371 C454 434 474 470 454 512Z"/><path d="M476 512 C446 462 486 438 484 388 C516 444 536 475 516 512Z"/><path d="M538 512 C508 441 548 406 546 335 C578 415 598 459 578 512Z"/></g><g fill="#FFB36B" opacity="0.07"><path d="M256 300 L776 300 L758 435Z"/><path d="M256 300 L706 560 L624 668Z"/><path d="M256 300 L516 750 L391 802Z"/><path d="M256 300 L256 820 L121 802Z"/><path d="M256 300 L-4 750 L-112 668Z"/><path d="M256 300 L-194 560 L-246 435Z"/><path d="M256 300 L-264 300 L-246 165Z"/><path d="M256 300 L-194 40 L-112 -68Z"/><path d="M256 300 L-4 -150 L121 -202Z"/><path d="M256 300 L256 -220 L391 -202Z"/><path d="M256 300 L516 -150 L624 -68Z"/><path d="M256 300 L706 40 L758 165Z"/></g><circle cx="244" cy="350" r="3.2" fill="#FFD27A" opacity="0.27"/><circle cx="25" cy="242" r="2.2" fill="#FFD27A" opacity="0.61"/><circle cx="346" cy="329" r="2.9" fill="#FFD27A" opacity="0.53"/><circle cx="89" cy="267" r="1.9" fill="#FFD27A" opacity="0.65"/><circle cx="48" cy="411" r="1.7" fill="#FFD27A" opacity="0.54"/><circle cx="179" cy="254" r="3.6" fill="#FFD27A" opacity="0.21"/><circle cx="49" cy="448" r="2.8" fill="#FFD27A" opacity="0.25"/><circle cx="486" cy="460" r="1.8" fill="#FFD27A" opacity="0.41"/><circle cx="84" cy="219" r="3.1" fill="#FFD27A" opacity="0.28"/><circle cx="349" cy="120" r="1.9" fill="#FFD27A" opacity="0.61"/><circle cx="209" cy="259" r="3.0" fill="#FFD27A" opacity="0.44"/><circle cx="202" cy="112" r="3.3" fill="#FFD27A" opacity="0.68"/><circle cx="481" cy="352" r="2.4" fill="#FFD27A" opacity="0.38"/><circle cx="346" cy="356" r="1.8" fill="#FFD27A" opacity="0.32"/><circle cx="191" cy="294" r="3.5" fill="#FFD27A" opacity="0.45"/><circle cx="33" cy="413" r="2.6" fill="#FFD27A" opacity="0.46"/><circle cx="125" cy="262" r="2.5" fill="#FFD27A" opacity="0.59"/><circle cx="68" cy="309" r="1.9" fill="#FFD27A" opacity="0.55"/><circle cx="37" cy="205" r="2.4" fill="#FFD27A" opacity="0.52"/><circle cx="45" cy="275" r="2.0" fill="#FFD27A" opacity="0.34"/><circle cx="245" cy="464" r="2.7" fill="#FFD27A" opacity="0.68"/><circle cx="99" cy="451" r="2.4" fill="#FFD27A" opacity="0.29"/><circle cx="373" cy="447" r="1.5" fill="#FFD27A" opacity="0.33"/><circle cx="384" cy="230" r="2.1" fill="#FFD27A" opacity="0.20"/><circle cx="39" cy="335" r="4.0" fill="#FFD27A" opacity="0.70"/><circle cx="258" cy="109" r="2.3" fill="#FFD27A" opacity="0.59"/><circle cx="413" cy="343" r="2.1" fill="#FFD27A" opacity="0.46"/><circle cx="245" cy="338" r="2.2" fill="#FFD27A" opacity="0.67"/><circle cx="442" cy="162" r="2.2" fill="#FFD27A" opacity="0.64"/><circle cx="151" cy="459" r="2.8" fill="#FFD27A" opacity="0.55"/><circle cx="353" cy="181" r="2.2" fill="#FFD27A" opacity="0.33"/><circle cx="343" cy="364" r="1.8" fill="#FFD27A" opacity="0.64"/><circle cx="218" cy="192" r="2.6" fill="#FFD27A" opacity="0.69"/><circle cx="284" cy="337" r="3.8" fill="#FFD27A" opacity="0.68"/>
    <rect width="512" height="512" fill="url(#aura)"/>
    <rect width="512" height="512" fill="url(#vig)"/>
    <g filter="url(#sh)"><g filter="url(#bv)"><g transform="translate(256 258) scale(0.9) translate(-256 -256)" stroke-linejoin="round" stroke-linecap="round"><path d="M96 540 C104 420 170 366 256 366 C342 366 408 420 416 540Z" fill="#4A0D14" opacity=".7"/><g transform="translate(104 296) rotate(-18) scale(0.62)">
<path d="M-62 -62 C-112 -78 -132 -20 -108 46 C-98 20 -82 2 -60 -8Z" fill="#4A0D14"/><path d="M-100 -50 C-120 -20 -112 20 -104 38" stroke="#fff" stroke-opacity=".25" stroke-width="3" fill="none"/>
<path d="M62 -62 C112 -78 132 -20 108 46 C98 20 82 2 60 -8Z" fill="#4A0D14"/>
<path d="M-40 70 Q0 108 40 70 L46 98 Q0 136 -46 98Z" fill="url(#gold)"/><g fill="#fff"><circle cx="-26" cy="92" r="4"/><circle cx="0" cy="102" r="4"/><circle cx="26" cy="92" r="4"/></g>
<path d="M0 -88 C58 -88 82 -46 80 6 C78 62 46 98 0 98 C-46 98 -78 62 -80 6 C-82 -46 -58 -88 0 -88Z" fill="url(#fw)"/>
<path d="M0 -88 C58 -88 82 -46 80 6 C78 62 46 98 0 98 C-46 98 -78 62 -80 6 C-82 -46 -58 -88 0 -88Z" fill="url(#tex)"/>
<path d="M0 -88 C58 -88 82 -46 80 6 C78 62 46 98 0 98" fill="url(#shH)" transform="translate(0 0)"/>
<path d="M-6 -86 L-12 -40 M8 -86 L14 -44" stroke="#4A0D14" stroke-opacity=".3" stroke-width="6"/>
<ellipse cx="0" cy="48" rx="44" ry="36" fill="#4A0D14" opacity=".14"/>
<path d="M-18 24 Q0 16 18 24 Q16 40 0 42 Q-16 40 -18 24Z" fill="#4A0D14"/><ellipse cx="-6" cy="25" rx="5" ry="2.5" fill="#fff" opacity=".7"/>
<path d="M0 42 L0 58 M-26 64 Q0 76 0 58 Q0 76 26 64" stroke="#4A0D14" stroke-width="6" fill="none"/>
<path d="M-18 68 L-12 90 L-5 71Z M18 68 L12 90 L5 71Z" fill="#fff" stroke="#4A0D14" stroke-width="3"/>
<g transform="translate(-31 -14)"><ellipse rx="13" ry="11" fill="#4A0D14"/><ellipse rx="9" ry="8" fill="#FF7A2A" filter="url(#glow)"/><ellipse rx="8" ry="7" fill="url(#eyeG)"/><circle r="3.5" fill="#4A0D14"/><circle cx="-3" cy="-3" r="2" fill="#fff"/></g>
<g transform="translate(31 -14)"><ellipse rx="13" ry="11" fill="#4A0D14"/><ellipse rx="9" ry="8" fill="#FF7A2A" filter="url(#glow)"/><ellipse rx="8" ry="7" fill="url(#eyeG)"/><circle r="3.5" fill="#4A0D14"/><circle cx="-3" cy="-3" r="2" fill="#fff"/></g>
<path d="M-54 -40 L-16 -26 M54 -40 L16 -26" stroke="#4A0D14" stroke-width="9"/>
</g><g transform="translate(408 296) rotate(18) scale(0.62)">
<path d="M-62 -62 C-112 -78 -132 -20 -108 46 C-98 20 -82 2 -60 -8Z" fill="#4A0D14"/><path d="M-100 -50 C-120 -20 -112 20 -104 38" stroke="#fff" stroke-opacity=".25" stroke-width="3" fill="none"/>
<path d="M62 -62 C112 -78 132 -20 108 46 C98 20 82 2 60 -8Z" fill="#4A0D14"/>
<path d="M-40 70 Q0 108 40 70 L46 98 Q0 136 -46 98Z" fill="url(#gold)"/><g fill="#fff"><circle cx="-26" cy="92" r="4"/><circle cx="0" cy="102" r="4"/><circle cx="26" cy="92" r="4"/></g>
<path d="M0 -88 C58 -88 82 -46 80 6 C78 62 46 98 0 98 C-46 98 -78 62 -80 6 C-82 -46 -58 -88 0 -88Z" fill="url(#fw)"/>
<path d="M0 -88 C58 -88 82 -46 80 6 C78 62 46 98 0 98 C-46 98 -78 62 -80 6 C-82 -46 -58 -88 0 -88Z" fill="url(#tex)"/>
<path d="M0 -88 C58 -88 82 -46 80 6 C78 62 46 98 0 98" fill="url(#shH)" transform="translate(0 0)"/>
<path d="M-6 -86 L-12 -40 M8 -86 L14 -44" stroke="#4A0D14" stroke-opacity=".3" stroke-width="6"/>
<ellipse cx="0" cy="48" rx="44" ry="36" fill="#4A0D14" opacity=".14"/>
<path d="M-18 24 Q0 16 18 24 Q16 40 0 42 Q-16 40 -18 24Z" fill="#4A0D14"/><ellipse cx="-6" cy="25" rx="5" ry="2.5" fill="#fff" opacity=".7"/>
<path d="M0 42 L0 58 M-26 64 Q0 76 0 58 Q0 76 26 64" stroke="#4A0D14" stroke-width="6" fill="none"/>
<path d="M-18 68 L-12 90 L-5 71Z M18 68 L12 90 L5 71Z" fill="#fff" stroke="#4A0D14" stroke-width="3"/>
<g transform="translate(-31 -14)"><ellipse rx="13" ry="11" fill="#4A0D14"/><ellipse rx="9" ry="8" fill="#FF7A2A" filter="url(#glow)"/><ellipse rx="8" ry="7" fill="url(#eyeG)"/><circle r="3.5" fill="#4A0D14"/><circle cx="-3" cy="-3" r="2" fill="#fff"/></g>
<g transform="translate(31 -14)"><ellipse rx="13" ry="11" fill="#4A0D14"/><ellipse rx="9" ry="8" fill="#FF7A2A" filter="url(#glow)"/><ellipse rx="8" ry="7" fill="url(#eyeG)"/><circle r="3.5" fill="#4A0D14"/><circle cx="-3" cy="-3" r="2" fill="#fff"/></g>
<path d="M-54 -40 L-16 -26 M54 -40 L16 -26" stroke="#4A0D14" stroke-width="9"/>
</g><g transform="translate(256 258) rotate(0) scale(1.0)">
<path d="M-62 -62 C-112 -78 -132 -20 -108 46 C-98 20 -82 2 -60 -8Z" fill="#4A0D14"/><path d="M-100 -50 C-120 -20 -112 20 -104 38" stroke="#fff" stroke-opacity=".25" stroke-width="3" fill="none"/>
<path d="M62 -62 C112 -78 132 -20 108 46 C98 20 82 2 60 -8Z" fill="#4A0D14"/>
<path d="M-40 70 Q0 108 40 70 L46 98 Q0 136 -46 98Z" fill="url(#gold)"/><g fill="#fff"><circle cx="-26" cy="92" r="4"/><circle cx="0" cy="102" r="4"/><circle cx="26" cy="92" r="4"/></g>
<path d="M0 -88 C58 -88 82 -46 80 6 C78 62 46 98 0 98 C-46 98 -78 62 -80 6 C-82 -46 -58 -88 0 -88Z" fill="url(#fw)"/>
<path d="M0 -88 C58 -88 82 -46 80 6 C78 62 46 98 0 98 C-46 98 -78 62 -80 6 C-82 -46 -58 -88 0 -88Z" fill="url(#tex)"/>
<path d="M0 -88 C58 -88 82 -46 80 6 C78 62 46 98 0 98" fill="url(#shH)" transform="translate(0 0)"/>
<path d="M-6 -86 L-12 -40 M8 -86 L14 -44" stroke="#4A0D14" stroke-opacity=".3" stroke-width="6"/>
<ellipse cx="0" cy="48" rx="44" ry="36" fill="#4A0D14" opacity=".14"/>
<path d="M-18 24 Q0 16 18 24 Q16 40 0 42 Q-16 40 -18 24Z" fill="#4A0D14"/><ellipse cx="-6" cy="25" rx="5" ry="2.5" fill="#fff" opacity=".7"/>
<path d="M0 42 L0 58 M-26 64 Q0 76 0 58 Q0 76 26 64" stroke="#4A0D14" stroke-width="6" fill="none"/>
<path d="M-18 68 L-12 90 L-5 71Z M18 68 L12 90 L5 71Z" fill="#fff" stroke="#4A0D14" stroke-width="3"/>
<g transform="translate(-31 -14)"><ellipse rx="13" ry="11" fill="#4A0D14"/><ellipse rx="9" ry="8" fill="#FF7A2A" filter="url(#glow)"/><ellipse rx="8" ry="7" fill="url(#eyeG)"/><circle r="3.5" fill="#4A0D14"/><circle cx="-3" cy="-3" r="2" fill="#fff"/></g>
<g transform="translate(31 -14)"><ellipse rx="13" ry="11" fill="#4A0D14"/><ellipse rx="9" ry="8" fill="#FF7A2A" filter="url(#glow)"/><ellipse rx="8" ry="7" fill="url(#eyeG)"/><circle r="3.5" fill="#4A0D14"/><circle cx="-3" cy="-3" r="2" fill="#fff"/></g>
<path d="M-54 -40 L-16 -26 M54 -40 L16 -26" stroke="#4A0D14" stroke-width="9"/>
</g></g></g></g>
    <path d="M0 0 H512 V190 C380 250 132 250 0 190Z" fill="url(#gloss)"/>
    <rect x="2" y="2" width="508" height="508" rx="110" fill="none" stroke="#fff" stroke-opacity=".38" stroke-width="3"/>
    <rect x="7" y="7" width="498" height="498" rx="106" fill="none" stroke="#000" stroke-opacity=".12" stroke-width="2"/>
  </g>
</svg>
