<svg xmlns="http://www.w3.org/2000/svg" viewBox="0 0 512 512" width="512" height="512" role="img" aria-label="Excelisk">
  <title>Excelisk</title>
  <defs>
    <linearGradient id="bg" x1="0" y1="0" x2="1" y2="1"><stop offset="0" stop-color="#2FA35A"/><stop offset="1" stop-color="#0F6B3A"/></linearGradient>
    <radialGradient id="hl" cx=".3" cy=".15" r=".8"><stop offset="0" stop-color="#fff" stop-opacity=".28"/><stop offset="1" stop-color="#fff" stop-opacity="0"/></radialGradient>
    <clipPath id="c"><rect width="512" height="512" rx="112"/></clipPath>
  </defs>
  <g clip-path="url(#c)">
    <rect width="512" height="512" fill="url(#bg)"/>
    <rect width="512" height="512" fill="url(#hl)"/>
    <g transform="translate(256 262) scale(0.88) translate(-256 -256)" stroke-linejoin="round" stroke-linecap="round"><g>
<path d="M300 205 L318 126 L346 212Z" fill="#FFFFFF" opacity=".85"/>
<path d="M346 232 L392 160 L388 262Z" fill="#FFFFFF" opacity=".7"/>
<path d="M256 195 C312 195 356 236 360 296 C362 346 322 392 256 392Z" fill="#FFFFFF"/>
<ellipse cx="306" cy="288" rx="30" ry="22" fill="#0B4F2E"/>
<ellipse cx="306" cy="288" rx="6" ry="18" fill="#FFC83D"/>
<circle cx="283" cy="352" r="6" fill="#0B4F2E"/>
<path d="M282 215 L300 232 M300 205 L322 232" stroke="#0B4F2E" stroke-width="6" opacity=".3" fill="none"/>
</g><g transform="translate(512 0) scale(-1 1)">
<path d="M300 205 L318 126 L346 212Z" fill="#FFFFFF" opacity=".85"/>
<path d="M346 232 L392 160 L388 262Z" fill="#FFFFFF" opacity=".7"/>
<path d="M256 195 C312 195 356 236 360 296 C362 346 322 392 256 392Z" fill="#FFFFFF"/>
<ellipse cx="306" cy="288" rx="30" ry="22" fill="#0B4F2E"/>
<ellipse cx="306" cy="288" rx="6" ry="18" fill="#FFC83D"/>
<circle cx="283" cy="352" r="6" fill="#0B4F2E"/>
<path d="M282 215 L300 232 M300 205 L322 232" stroke="#0B4F2E" stroke-width="6" opacity=".3" fill="none"/>
</g><path d="M238 200 L256 100 L274 200Z" fill="#FFFFFF"/><path d="M256 205 L256 235 M256 200 L256 250" stroke="#0B4F2E" stroke-width="6" opacity=".25"/><path d="M256 388 L256 438 L232 474 M256 438 L280 474" stroke="#FF5A5A" stroke-width="12" fill="none"/></g>
  </g>
</svg>
