<svg xmlns="http://www.w3.org/2000/svg" viewBox="0 0 512 512" width="512" height="512" role="img" aria-label="Projectaur">
  <title>Projectaur</title>
  <defs>
    <linearGradient id="bg" x1="0" y1="0" x2="1" y2="1"><stop offset="0" stop-color="#4DB06A"/><stop offset="1" stop-color="#1E6B3C"/></linearGradient>
    <radialGradient id="hl" cx=".3" cy=".15" r=".8"><stop offset="0" stop-color="#fff" stop-opacity=".28"/><stop offset="1" stop-color="#fff" stop-opacity="0"/></radialGradient>
    <clipPath id="c"><rect width="512" height="512" rx="112"/></clipPath>
  </defs>
  <g clip-path="url(#c)">
    <rect width="512" height="512" fill="url(#bg)"/>
    <rect width="512" height="512" fill="url(#hl)"/>
    <g transform="translate(256 258) scale(0.88) translate(-256 -256)" stroke-linejoin="round" stroke-linecap="round"><g>
<path d="M300 176 C338 164 392 142 424 68 C446 122 424 196 362 226 C342 230 320 220 300 210Z" fill="#FFFFFF" opacity=".88"/>
<path d="M326 238 C372 220 414 230 436 250 C406 276 362 282 330 270Z" fill="#FFFFFF" opacity=".7"/>
<path d="M256 138 C304 138 338 166 342 222 C346 290 326 350 304 390 C294 412 278 428 256 428Z" fill="#FFFFFF"/>
<ellipse cx="300" cy="238" rx="15" ry="10" fill="#0F4A2A" transform="rotate(14 300 238)"/>
<path d="M280 216 L330 238" stroke="#0F4A2A" stroke-width="9"/>
<ellipse cx="256" cy="376" rx="62" ry="46" fill="#0F4A2A" opacity=".16"/>
<circle cx="232" cy="378" r="9" fill="#0F4A2A"/>
</g><g transform="translate(512 0) scale(-1 1)">
<path d="M300 176 C338 164 392 142 424 68 C446 122 424 196 362 226 C342 230 320 220 300 210Z" fill="#FFFFFF" opacity=".88"/>
<path d="M326 238 C372 220 414 230 436 250 C406 276 362 282 330 270Z" fill="#FFFFFF" opacity=".7"/>
<path d="M256 138 C304 138 338 166 342 222 C346 290 326 350 304 390 C294 412 278 428 256 428Z" fill="#FFFFFF"/>
<ellipse cx="300" cy="238" rx="15" ry="10" fill="#0F4A2A" transform="rotate(14 300 238)"/>
<path d="M280 216 L330 238" stroke="#0F4A2A" stroke-width="9"/>
<ellipse cx="256" cy="376" rx="62" ry="46" fill="#0F4A2A" opacity=".16"/>
<circle cx="232" cy="378" r="9" fill="#0F4A2A"/>
</g><path d="M256 150 C264 190 264 230 256 262" stroke="#0F4A2A" stroke-width="12" opacity=".18" fill="none"/><circle cx="256" cy="418" r="26" stroke="#FFC83D" stroke-width="10" fill="none"/></g>
  </g>
</svg>
