<svg xmlns="http://www.w3.org/2000/svg" viewBox="0 0 512 512" width="512" height="512" role="img" aria-label="Sphinxpoint">
  <title>Sphinxpoint</title>
  <defs>
    <linearGradient id="bg" x1="0" y1="0" x2="1" y2="1"><stop offset="0" stop-color="#48B9AB"/><stop offset=".55" stop-color="#2FB0A0"/><stop offset="1" stop-color="#0A5D5A"/></linearGradient>
    <radialGradient id="aura" cx=".5" cy="0.45" r=".55"><stop offset="0" stop-color="#A1DBD4" stop-opacity=".95"/><stop offset=".55" stop-color="#A1DBD4" stop-opacity=".25"/><stop offset="1" stop-color="#A1DBD4" stop-opacity="0"/></radialGradient>
    <radialGradient id="vig" cx=".5" cy=".45" r=".75"><stop offset=".55" stop-color="#042A28" stop-opacity="0"/><stop offset="1" stop-color="#042A28" stop-opacity=".6"/></radialGradient>
    <linearGradient id="fw" gradientUnits="userSpaceOnUse" x1="150" y1="60" x2="360" y2="470"><stop offset="0" stop-color="#FFFFFF"/><stop offset=".5" stop-color="#E2F4F2"/><stop offset="1" stop-color="#ACDFD9"/></linearGradient>
    <linearGradient id="shH" gradientUnits="userSpaceOnUse" x1="256" y1="0" x2="440" y2="0"><stop offset="0" stop-color="#042A28" stop-opacity="0"/><stop offset=".6" stop-color="#042A28" stop-opacity=".05"/><stop offset="1" stop-color="#042A28" stop-opacity=".38"/></linearGradient>
    <linearGradient id="shV" gradientUnits="userSpaceOnUse" x1="0" y1="80" x2="0" y2="450"><stop offset="0" stop-color="#042A28" stop-opacity="0"/><stop offset=".6" stop-color="#042A28" stop-opacity="0"/><stop offset="1" stop-color="#042A28" stop-opacity=".3"/></linearGradient>
    <linearGradient id="gold" x1="0" y1="0" x2="1" y2="1"><stop offset="0" stop-color="#FFF1B0"/><stop offset=".5" stop-color="#F5B93A"/><stop offset="1" stop-color="#B8790A"/></linearGradient>
    <radialGradient id="eyeG" cx=".4" cy=".35" r=".8"><stop offset="0" stop-color="#FFFBD6"/><stop offset=".35" stop-color="#FFD84A"/><stop offset=".8" stop-color="#FF9A1F"/><stop offset="1" stop-color="#D9560B"/></radialGradient>
    <linearGradient id="fl" x1="0" y1="1" x2="0" y2="0"><stop offset="0" stop-color="#FFD84A"/><stop offset=".5" stop-color="#FF7A1F"/><stop offset="1" stop-color="#E02F1B" stop-opacity="0"/></linearGradient>
    <linearGradient id="gloss" x1="0" y1="0" x2="0" y2="1"><stop offset="0" stop-color="#fff" stop-opacity=".34"/><stop offset="1" stop-color="#fff" stop-opacity="0"/></linearGradient>
    <pattern id="tex" width="4" height="4" patternUnits="userSpaceOnUse"/>
    <filter id="glow" x="-80%" y="-80%" width="260%" height="260%"><feGaussianBlur stdDeviation="6"/></filter>
    <filter id="blur4" x="-50%" y="-50%" width="200%" height="200%"><feGaussianBlur stdDeviation="4"/></filter>
    <filter id="blur12" x="-50%" y="-50%" width="200%" height="200%"><feGaussianBlur stdDeviation="12"/></filter>
    <filter id="sh" x="-20%" y="-20%" width="140%" height="150%"><feDropShadow dx="0" dy="14" stdDeviation="11" flood-color="#042A28" flood-opacity=".6"/></filter>
    <filter id="bv" x="-5%" y="-5%" width="110%" height="110%" color-interpolation-filters="sRGB">
      <feGaussianBlur in="SourceAlpha" stdDeviation="3.2" result="b"/>
      <feDiffuseLighting in="b" surfaceScale="6" diffuseConstant="1.5" lighting-color="#fff" result="dl"><fePointLight x="110" y="20" z="300"/></feDiffuseLighting>
      <feComposite in="dl" in2="SourceAlpha" operator="in" result="dl2"/>
      <feBlend in="SourceGraphic" in2="dl2" mode="multiply" result="lit"/>
      <feSpecularLighting in="b" surfaceScale="6" specularConstant=".75" specularExponent="26" lighting-color="#fff" result="sp"><fePointLight x="110" y="20" z="300"/></feSpecularLighting>
      <feComposite in="sp" in2="SourceAlpha" operator="in" result="sp2"/>
      <feComposite in="sp2" in2="lit" operator="arithmetic" k1="0" k2="1" k3="1" k4="0"/>
    </filter>
    <clipPath id="c"><rect width="512" height="512" rx="112"/></clipPath>
  </defs>
  <g clip-path="url(#c)">
    <rect width="512" height="512" fill="url(#bg)"/>
    <circle cx="256" cy="330" r="150" fill="#FFE9A0" opacity=".5" filter="url(#blur12)"/><circle cx="256" cy="330" r="108" fill="#FFD66B" opacity=".55"/><path d="M-20 512 L90 360 L200 512Z M300 512 L410 340 L540 512Z" fill="#06403F" opacity=".45"/><path d="M472 42.9 Q472 45 474.1 45 Q472 45 472 47.1 Q472 45 469.9 45 Q472 45 472 42.9Z" fill="#fff" opacity="0.9"/><path d="M107 37.4 Q107 42 111.6 42 Q107 42 107 46.6 Q107 42 102.4 42 Q107 42 107 37.4Z" fill="#fff" opacity="0.54"/><path d="M440 56.2 Q440 62 445.8 62 Q440 62 440 67.8 Q440 62 434.2 62 Q440 62 440 56.2Z" fill="#fff" opacity="0.53"/><path d="M304 183.3 Q304 188 308.7 188 Q304 188 304 192.7 Q304 188 299.3 188 Q304 188 304 183.3Z" fill="#fff" opacity="0.86"/><path d="M354 23.5 Q354 29 359.5 29 Q354 29 354 34.5 Q354 29 348.5 29 Q354 29 354 23.5Z" fill="#fff" opacity="0.67"/><path d="M167 48.6 Q167 54 172.4 54 Q167 54 167 59.4 Q167 54 161.6 54 Q167 54 167 48.6Z" fill="#fff" opacity="0.67"/><path d="M463 153.2 Q463 159 468.8 159 Q463 159 463 164.8 Q463 159 457.2 159 Q463 159 463 153.2Z" fill="#fff" opacity="0.66"/><path d="M350 127.0 Q350 130 353.0 130 Q350 130 350 133.0 Q350 130 347.0 130 Q350 130 350 127.0Z" fill="#fff" opacity="0.88"/><path d="M167 155.2 Q167 161 172.8 161 Q167 161 167 166.8 Q167 161 161.2 161 Q167 161 167 155.2Z" fill="#fff" opacity="0.71"/><path d="M87 164.3 Q87 169 91.7 169 Q87 169 87 173.7 Q87 169 82.3 169 Q87 169 87 164.3Z" fill="#fff" opacity="0.45"/><path d="M43 113.9 Q43 116 45.1 116 Q43 116 43 118.1 Q43 116 40.9 116 Q43 116 43 113.9Z" fill="#fff" opacity="0.86"/><path d="M259 109.4 Q259 113 262.6 113 Q259 113 259 116.6 Q259 113 255.4 113 Q259 113 259 109.4Z" fill="#fff" opacity="0.71"/><path d="M453 71.5 Q453 75 456.5 75 Q453 75 453 78.5 Q453 75 449.5 75 Q453 75 453 71.5Z" fill="#fff" opacity="0.67"/><path d="M160 122.8 Q160 127 164.2 127 Q160 127 160 131.2 Q160 127 155.8 127 Q160 127 160 122.8Z" fill="#fff" opacity="0.59"/><path d="M338 112.6 Q338 115 340.4 115 Q338 115 338 117.4 Q338 115 335.6 115 Q338 115 338 112.6Z" fill="#fff" opacity="0.9"/><path d="M188 94.4 Q188 98 191.6 98 Q188 98 188 101.6 Q188 98 184.4 98 Q188 98 188 94.4Z" fill="#fff" opacity="0.86"/><path d="M469 108.4 Q469 112 472.6 112 Q469 112 469 115.6 Q469 112 465.4 112 Q469 112 469 108.4Z" fill="#fff" opacity="0.4"/><path d="M443 46.8 Q443 51 447.2 51 Q443 51 443 55.2 Q443 51 438.8 51 Q443 51 443 46.8Z" fill="#fff" opacity="0.54"/>
    <rect width="512" height="512" fill="url(#aura)"/>
    <rect width="512" height="512" fill="url(#vig)"/>
    <g filter="url(#sh)"><g filter="url(#bv)"><g transform="translate(256 264) scale(0.86) translate(-256 -256)" stroke-linejoin="round" stroke-linecap="round"><clipPath id="nm"><path d="M256 62 C334 62 386 104 398 168 L420 470 L304 470 L304 310 L208 310 L208 470 L92 470 L114 168 C126 104 178 62 256 62Z"/></clipPath><path d="M256 62 C334 62 386 104 398 168 L420 470 L304 470 L304 310 L208 310 L208 470 L92 470 L114 168 C126 104 178 62 256 62Z" fill="url(#gold)"/><g clip-path="url(#nm)"><rect x="80" y="104" width="352" height="20" fill="#1E4FA8" opacity=".85"/><rect x="80" y="144" width="352" height="20" fill="#1E4FA8" opacity=".85"/><rect x="80" y="184" width="352" height="20" fill="#1E4FA8" opacity=".85"/><rect x="80" y="224" width="352" height="20" fill="#1E4FA8" opacity=".85"/><rect x="80" y="264" width="352" height="20" fill="#1E4FA8" opacity=".85"/><rect x="80" y="304" width="352" height="20" fill="#1E4FA8" opacity=".85"/><rect x="80" y="344" width="352" height="20" fill="#1E4FA8" opacity=".85"/><rect x="80" y="384" width="352" height="20" fill="#1E4FA8" opacity=".85"/><rect x="80" y="424" width="352" height="20" fill="#1E4FA8" opacity=".85"/><rect x="80" y="464" width="352" height="20" fill="#1E4FA8" opacity=".85"/></g><path d="M256 62 C334 62 386 104 398 168 L420 470 L304 470 L304 310 L208 310 L208 470 L92 470 L114 168 C126 104 178 62 256 62Z" fill="url(#shH)"/><path d="M256 62 C334 62 386 104 398 168 L420 470 L304 470 L304 310 L208 310 L208 470 L92 470 L114 168 C126 104 178 62 256 62Z" fill="url(#shV)"/><path d="M256 66 C330 66 380 108 392 168" fill="none" stroke="#fff" stroke-opacity="0.8" stroke-width="3.5"/><path d="M256 118 C302 118 324 150 324 200 C324 268 298 322 256 322 C214 322 188 268 188 200 C188 150 210 118 256 118Z" fill="#F7D3A0"/><path d="M256 118 C302 118 324 150 324 200 C324 268 298 322 256 322Z" fill="#B9804A" opacity=".35"/><path d="M222 160 C236 130 276 130 290 160" fill="#fff" opacity=".25"/><path d="M204 200 Q226 180 250 198 Q226 212 204 204Z M308 200 Q286 180 262 198 Q286 212 308 204Z" fill="#04302F"/><circle cx="228" cy="199" r="6" fill="#fff"/><circle cx="284" cy="199" r="6" fill="#fff"/><circle cx="229" cy="199" r="3" fill="#04302F"/><circle cx="283" cy="199" r="3" fill="#04302F"/><path d="M198 202 L170 214 M314 202 L342 214" fill="none" stroke="#04302F" stroke-width="5" stroke-opacity="1"/><path d="M206 178 Q226 168 246 176 M306 178 Q286 168 266 176" fill="none" stroke="#04302F" stroke-width="4" stroke-opacity="0.6"/><path d="M256 206 L246 256 L266 256Z" fill="#B9804A" opacity=".45"/><path d="M232 288 Q256 304 280 288" fill="none" stroke="#A8433A" stroke-width="7" stroke-opacity="1"/><path d="M246 322 H266 L264 392 H248Z" fill="#1E4FA8"/><path d="M248 340 H264 M248 360 H264 M248 376 H264" stroke="url(#gold)" stroke-width="4"/><path d="M256 112 C240 96 244 74 256 50 C268 74 272 96 256 112Z" fill="url(#gold)" stroke="#04302F" stroke-width="2"/><circle cx="256" cy="84" r="4" fill="#FF4D6D"/><path d="M180 336 C200 424 312 424 332 336" stroke="url(#gold)" stroke-width="22" fill="none"/><circle cx="200" cy="372" r="6" fill="#2BD1C3"/><circle cx="226" cy="398" r="6" fill="#FF4D6D"/><circle cx="256" cy="408" r="6" fill="#2BD1C3"/><circle cx="286" cy="398" r="6" fill="#FF4D6D"/><circle cx="312" cy="372" r="6" fill="#2BD1C3"/></g></g></g>
    <path d="M0 0 H512 V190 C380 250 132 250 0 190Z" fill="url(#gloss)"/>
    <rect x="2" y="2" width="508" height="508" rx="110" fill="none" stroke="#fff" stroke-opacity=".38" stroke-width="3"/>
    <rect x="7" y="7" width="498" height="498" rx="106" fill="none" stroke="#000" stroke-opacity=".12" stroke-width="2"/>
  </g>
</svg>
